# UyDosh storage7 catalog variant (imported from Desktop/3D)
mtllib storage7.mtl
g storage7
v -0.275000 0.936000 0.255000
v -0.275000 0.960000 0.255000
v -0.275000 0.936000 -0.255000
v -0.275000 0.960000 -0.255000
v 0.275000 0.936000 -0.255000
v 0.275000 0.960000 -0.255000
v 0.275000 0.936000 0.255000
v 0.275000 0.960000 0.255000
v -0.175000 0.120000 -0.240000
v -0.175000 0.000000 -0.240000
v -0.175000 0.120000 -0.200000
v -0.175000 0.000000 -0.200000
v -0.225000 0.120000 -0.240000
v -0.225000 0.000000 -0.240000
v -0.225000 0.120000 -0.200000
v -0.225000 0.000000 -0.200000
v -0.170098 0.880354 -0.122066
v -0.170098 0.684965 -0.122066
v -0.170098 0.880354 0.240000
v -0.170098 0.684965 0.240000
v 0.275000 0.880354 0.240000
v 0.275000 0.684965 0.240000
v 0.275000 0.880354 -0.122066
v 0.275000 0.684965 -0.122066
v -0.170098 0.652756 -0.122066
v -0.170098 0.457367 -0.122066
v -0.170098 0.652756 0.240000
v -0.170098 0.457367 0.240000
v 0.275000 0.652756 0.240000
v 0.275000 0.457367 0.240000
v 0.275000 0.652756 -0.122066
v 0.275000 0.457367 -0.122066
v -0.170098 0.426807 -0.122066
v -0.170098 0.174353 -0.122066
v -0.170098 0.426807 0.240000
v -0.170098 0.174353 0.240000
v 0.275000 0.426807 0.240000
v 0.275000 0.174353 0.240000
v 0.275000 0.426807 -0.122066
v 0.275000 0.174353 -0.122066
v -0.225000 0.120000 0.240000
v -0.225000 0.936000 0.240000
v -0.225000 0.120000 -0.240000
v -0.225000 0.936000 -0.240000
v 0.275000 0.936000 0.240000
v -0.225000 0.120000 0.200000
v -0.225000 0.936000 0.200000
v 0.275000 0.120000 0.200000
v -0.174988 0.936000 0.200000
v -0.225000 0.936000 -0.199963
v -0.225000 0.120000 -0.199963
v 0.275000 0.936000 -0.199963
v -0.223818 0.120000 -0.199963
v -0.223818 0.120000 0.200000
v -0.223818 0.936000 0.200000
v -0.223818 0.936000 -0.199963
v -0.174988 0.120000 0.240000
v 0.275000 0.120000 0.240000
v 0.275000 0.936000 0.200000
v -0.174988 0.936000 0.240000
v 0.275000 0.120000 -0.199963
v -0.174988 0.936000 -0.199963
v -0.174988 0.120000 -0.199963
v -0.174988 0.936000 -0.240000
v -0.174988 0.120000 0.200000
v -0.174988 0.120000 -0.240000
v 0.275000 0.936000 -0.238359
v 0.275000 0.120000 -0.238359
v -0.174988 0.936000 -0.238359
v -0.174988 0.120000 -0.238359
v -0.225000 0.886178 0.240000
v -0.225000 0.886178 -0.240000
v -0.225000 0.886178 0.200000
v -0.225000 0.886178 -0.199963
v -0.223818 0.886178 0.200000
v -0.223818 0.886178 -0.199963
v -0.174988 0.886178 0.240000
v 0.275000 0.886178 0.240000
v 0.275000 0.886178 -0.238359
v -0.174988 0.886178 -0.238359
v -0.174988 0.886178 -0.240000
v -0.225000 0.169800 -0.240000
v -0.225000 0.169800 0.200000
v -0.225000 0.169800 -0.199963
v -0.223818 0.169800 0.200000
v -0.223818 0.169800 -0.199963
v -0.174988 0.169800 0.240000
v 0.275000 0.169800 0.240000
v 0.275000 0.169800 -0.238359
v -0.174988 0.169800 -0.238359
v -0.174988 0.169800 -0.240000
v -0.225000 0.169800 0.240000
v -0.211064 0.886178 0.200000
v -0.211064 0.886178 -0.199963
v -0.211064 0.169800 0.200000
v -0.211064 0.169800 -0.199963
v -0.225000 0.432154 0.240000
v -0.225000 0.679142 0.240000
v -0.225000 0.679142 -0.240000
v -0.225000 0.432154 -0.240000
v -0.225000 0.679142 0.200000
v -0.225000 0.432154 0.200000
v -0.225000 0.679142 -0.199963
v -0.225000 0.432154 -0.199963
v -0.223818 0.679142 0.200000
v -0.223818 0.432154 0.200000
v -0.223818 0.679142 -0.199963
v -0.223818 0.432154 -0.199963
v -0.174988 0.679142 0.240000
v -0.174988 0.432154 0.240000
v 0.275000 0.679142 0.240000
v 0.275000 0.432154 0.240000
v 0.275000 0.679142 -0.238359
v 0.275000 0.432154 -0.238359
v -0.174988 0.679142 -0.238359
v -0.174988 0.432154 -0.238359
v -0.174988 0.679142 -0.240000
v -0.174988 0.432154 -0.240000
v -0.211064 0.679142 0.200000
v -0.211064 0.432154 0.200000
v -0.211064 0.679142 -0.199963
v -0.211064 0.432154 -0.199963
v -0.225000 0.659003 0.240000
v -0.225000 0.659003 -0.240000
v -0.225000 0.659003 0.200000
v -0.225000 0.659003 -0.199963
v -0.223818 0.659003 0.200000
v -0.223818 0.659003 -0.199963
v -0.174988 0.659003 0.240000
v 0.275000 0.659003 0.240000
v 0.275000 0.659003 -0.238359
v -0.174988 0.659003 -0.238359
v -0.174988 0.659003 -0.240000
v -0.211064 0.659003 0.200000
v -0.211064 0.659003 -0.199963
v -0.225000 0.451802 -0.240000
v -0.225000 0.451802 0.200000
v -0.225000 0.451802 -0.199963
v -0.223818 0.451802 0.200000
v -0.223818 0.451802 -0.199963
v -0.174988 0.451802 0.240000
v 0.275000 0.451802 0.240000
v 0.275000 0.451802 -0.238359
v -0.174988 0.451802 -0.238359
v -0.174988 0.451802 -0.240000
v -0.211064 0.451802 0.200000
v -0.211064 0.451802 -0.199963
v -0.225000 0.451802 0.240000
v 0.275000 0.886178 -0.193341
v -0.174988 0.886178 -0.193341
v -0.174988 0.432154 -0.193341
v -0.174988 0.169800 -0.193341
v 0.275000 0.432154 -0.193341
v 0.275000 0.169800 -0.193341
v -0.174988 0.679142 -0.193341
v 0.275000 0.679142 -0.193341
v 0.275000 0.659003 -0.193341
v -0.174988 0.659003 -0.193341
v -0.174988 0.451802 -0.193341
v 0.275000 0.451802 -0.193341
v 0.275000 0.936000 0.255000
v 0.275000 0.960000 0.255000
v 0.275000 0.936000 -0.255000
v 0.275000 0.960000 -0.255000
v -0.275000 0.936000 -0.255000
v -0.275000 0.960000 -0.255000
v -0.275000 0.936000 0.255000
v -0.275000 0.960000 0.255000
v 0.175000 0.120000 -0.240000
v 0.175000 0.000000 -0.240000
v 0.175000 0.120000 -0.200000
v 0.175000 0.000000 -0.200000
v 0.225000 0.120000 -0.240000
v 0.225000 0.000000 -0.240000
v 0.225000 0.120000 -0.200000
v 0.225000 0.000000 -0.200000
v 0.170098 0.880354 -0.122066
v 0.170098 0.684965 -0.122066
v 0.170098 0.880354 0.240000
v 0.170098 0.684965 0.240000
v -0.275000 0.880354 0.240000
v -0.275000 0.684965 0.240000
v -0.275000 0.880354 -0.122066
v -0.275000 0.684965 -0.122066
v 0.170098 0.652756 -0.122066
v 0.170098 0.457367 -0.122066
v 0.170098 0.652756 0.240000
v 0.170098 0.457367 0.240000
v -0.275000 0.652756 0.240000
v -0.275000 0.457367 0.240000
v -0.275000 0.652756 -0.122066
v -0.275000 0.457367 -0.122066
v 0.170098 0.426807 -0.122066
v 0.170098 0.174353 -0.122066
v 0.170098 0.426807 0.240000
v 0.170098 0.174353 0.240000
v -0.275000 0.426807 0.240000
v -0.275000 0.174353 0.240000
v -0.275000 0.426807 -0.122066
v -0.275000 0.174353 -0.122066
v 0.225000 0.120000 0.240000
v 0.225000 0.936000 0.240000
v 0.225000 0.120000 -0.240000
v 0.225000 0.936000 -0.240000
v -0.275000 0.936000 0.240000
v 0.225000 0.120000 0.200000
v 0.225000 0.936000 0.200000
v -0.275000 0.120000 0.200000
v 0.174988 0.936000 0.200000
v 0.225000 0.936000 -0.199963
v 0.225000 0.120000 -0.199963
v -0.275000 0.936000 -0.199963
v 0.223818 0.120000 -0.199963
v 0.223818 0.120000 0.200000
v 0.223818 0.936000 0.200000
v 0.223818 0.936000 -0.199963
v 0.174988 0.120000 0.240000
v -0.275000 0.120000 0.240000
v -0.275000 0.936000 0.200000
v 0.174988 0.936000 0.240000
v -0.275000 0.120000 -0.199963
v 0.174988 0.936000 -0.199963
v 0.174988 0.120000 -0.199963
v 0.174988 0.936000 -0.240000
v 0.174988 0.120000 0.200000
v 0.174988 0.120000 -0.240000
v -0.275000 0.936000 -0.238359
v -0.275000 0.120000 -0.238359
v 0.174988 0.936000 -0.238359
v 0.174988 0.120000 -0.238359
v 0.225000 0.886178 0.240000
v 0.225000 0.886178 -0.240000
v 0.225000 0.886178 0.200000
v 0.225000 0.886178 -0.199963
v 0.223818 0.886178 0.200000
v 0.223818 0.886178 -0.199963
v 0.174988 0.886178 0.240000
v -0.275000 0.886178 0.240000
v -0.275000 0.886178 -0.238359
v 0.174988 0.886178 -0.238359
v 0.174988 0.886178 -0.240000
v 0.225000 0.169800 -0.240000
v 0.225000 0.169800 0.200000
v 0.225000 0.169800 -0.199963
v 0.223818 0.169800 0.200000
v 0.223818 0.169800 -0.199963
v 0.174988 0.169800 0.240000
v -0.275000 0.169800 0.240000
v -0.275000 0.169800 -0.238359
v 0.174988 0.169800 -0.238359
v 0.174988 0.169800 -0.240000
v 0.225000 0.169800 0.240000
v 0.211064 0.886178 0.200000
v 0.211064 0.886178 -0.199963
v 0.211064 0.169800 0.200000
v 0.211064 0.169800 -0.199963
v 0.225000 0.432154 0.240000
v 0.225000 0.679142 0.240000
v 0.225000 0.679142 -0.240000
v 0.225000 0.432154 -0.240000
v 0.225000 0.679142 0.200000
v 0.225000 0.432154 0.200000
v 0.225000 0.679142 -0.199963
v 0.225000 0.432154 -0.199963
v 0.223818 0.679142 0.200000
v 0.223818 0.432154 0.200000
v 0.223818 0.679142 -0.199963
v 0.223818 0.432154 -0.199963
v 0.174988 0.679142 0.240000
v 0.174988 0.432154 0.240000
v -0.275000 0.679142 0.240000
v -0.275000 0.432154 0.240000
v -0.275000 0.679142 -0.238359
v -0.275000 0.432154 -0.238359
v 0.174988 0.679142 -0.238359
v 0.174988 0.432154 -0.238359
v 0.174988 0.679142 -0.240000
v 0.174988 0.432154 -0.240000
v 0.211064 0.679142 0.200000
v 0.211064 0.432154 0.200000
v 0.211064 0.679142 -0.199963
v 0.211064 0.432154 -0.199963
v 0.225000 0.659003 0.240000
v 0.225000 0.659003 -0.240000
v 0.225000 0.659003 0.200000
v 0.225000 0.659003 -0.199963
v 0.223818 0.659003 0.200000
v 0.223818 0.659003 -0.199963
v 0.174988 0.659003 0.240000
v -0.275000 0.659003 0.240000
v -0.275000 0.659003 -0.238359
v 0.174988 0.659003 -0.238359
v 0.174988 0.659003 -0.240000
v 0.211064 0.659003 0.200000
v 0.211064 0.659003 -0.199963
v 0.225000 0.451802 -0.240000
v 0.225000 0.451802 0.200000
v 0.225000 0.451802 -0.199963
v 0.223818 0.451802 0.200000
v 0.223818 0.451802 -0.199963
v 0.174988 0.451802 0.240000
v -0.275000 0.451802 0.240000
v -0.275000 0.451802 -0.238359
v 0.174988 0.451802 -0.238359
v 0.174988 0.451802 -0.240000
v 0.211064 0.451802 0.200000
v 0.211064 0.451802 -0.199963
v 0.225000 0.451802 0.240000
v -0.275000 0.886178 -0.193341
v 0.174988 0.886178 -0.193341
v 0.174988 0.432154 -0.193341
v 0.174988 0.169800 -0.193341
v -0.275000 0.432154 -0.193341
v -0.275000 0.169800 -0.193341
v 0.174988 0.679142 -0.193341
v -0.275000 0.679142 -0.193341
v -0.275000 0.659003 -0.193341
v 0.174988 0.659003 -0.193341
v 0.174988 0.451802 -0.193341
v -0.275000 0.451802 -0.193341
vn -1.0000 -0.0000 -0.0000
vn -0.0000 -0.0000 1.0000
vn -0.0000 1.0000 -0.0000
vn -0.0000 -1.0000 -0.0000
vn -0.0000 -0.0000 -1.0000
vn 1.0000 -0.0000 -0.0000
s 0
usemtl wood
f 1//1 2//1 4//1 3//1
f 7//2 8//2 2//2 1//2
f 6//3 4//3 2//3 8//3
f 3//4 5//4 7//4 1//4
f 3//5 4//5 6//5 5//5
f 9//1 10//1 12//1 11//1
f 11//5 12//5 16//5 15//5
f 15//6 16//6 14//6 13//6
f 13//2 14//2 10//2 9//2
f 11//4 15//4 13//4 9//4
f 16//3 12//3 10//3 14//3
f 21//5 22//5 20//5 19//5
f 19//6 20//6 18//6 17//6
f 21//4 19//4 17//4 23//4
f 20//3 22//3 24//3 18//3
f 17//2 18//2 24//2 23//2
f 29//5 30//5 28//5 27//5
f 27//6 28//6 26//6 25//6
f 29//4 27//4 25//4 31//4
f 28//3 30//3 32//3 26//3
f 25//2 26//2 32//2 31//2
f 37//5 38//5 36//5 35//5
f 35//6 36//6 34//6 33//6
f 37//4 35//4 33//4 39//4
f 36//3 38//3 40//3 34//3
f 33//2 34//2 40//2 39//2
f 74//1 50//1 44//1 72//1
f 77//2 60//2 42//2 71//2
f 49//3 47//3 42//3 60//3
f 72//5 44//5 64//5 81//5
f 46//4 65//4 57//4 41//4
f 62//3 50//3 47//3 49//3
f 71//1 42//1 47//1 73//1
f 64//3 44//3 50//3 62//3
f 43//4 66//4 63//4 51//4
f 51//3 63//3 53//3
f 53//4 63//4 65//4 54//4
f 75//1 55//1 56//1 76//1
f 47//4 50//4 56//4 55//4
f 65//4 46//4 54//4
f 84//2 51//2 53//2 86//2
f 73//5 47//5 55//5 75//5
f 65//4 48//4 58//4 57//4
f 59//3 49//3 60//3 45//3
f 78//2 45//2 60//2 77//2
f 52//3 62//3 49//3 59//3
f 63//4 61//4 48//4 65//4
f 67//3 69//3 62//3 52//3
f 81//6 64//6 69//6 80//6
f 80//5 69//5 67//5 79//5
f 63//4 70//4 68//4 61//4
f 115//5 80//5 79//5 113//5
f 117//6 81//6 80//6 115//6
f 101//5 73//5 75//5 105//5
f 50//2 74//2 76//2 56//2
f 75//4 76//4 94//4 93//4
f 98//1 71//1 73//1 101//1
f 99//5 72//5 81//5 117//5
f 109//2 77//2 71//2 98//2
f 103//1 74//1 72//1 99//1
f 51//1 84//1 82//1 43//1
f 57//2 87//2 92//2 41//2
f 43//5 82//5 91//5 66//5
f 41//1 92//1 83//1 46//1
f 54//1 85//1 86//1 53//1
f 46//5 83//5 85//5 54//5
f 58//2 88//2 87//2 57//2
f 66//6 91//6 90//6 70//6
f 70//5 90//5 89//5 68//5
f 104//2 84//2 86//2 108//2
f 119//1 93//1 94//1 121//1
f 108//2 86//2 96//2 122//2
f 86//3 85//3 95//3 96//3
f 105//5 75//5 93//5 119//5
f 85//5 106//5 120//5 95//5
f 127//5 105//5 119//5 134//5
f 76//2 107//2 121//2 94//2
f 95//1 120//1 122//1 96//1
f 134//1 119//1 121//1 135//1
f 74//2 103//2 107//2 76//2
f 140//2 108//2 122//2 147//2
f 84//1 104//1 100//1 82//1
f 126//1 103//1 99//1 124//1
f 87//2 110//2 97//2 92//2
f 129//2 109//2 98//2 123//2
f 82//5 100//5 118//5 91//5
f 124//5 99//5 117//5 133//5
f 92//1 97//1 102//1 83//1
f 123//1 98//1 101//1 125//1
f 83//5 102//5 106//5 85//5
f 125//5 101//5 105//5 127//5
f 130//2 111//2 109//2 129//2
f 91//6 118//6 116//6 90//6
f 133//6 117//6 115//6 132//6
f 90//5 116//5 114//5 89//5
f 132//5 115//5 113//5 131//5
f 144//5 132//5 131//5 143//5
f 145//6 133//6 132//6 144//6
f 137//5 125//5 127//5 139//5
f 148//1 123//1 125//1 137//1
f 136//5 124//5 133//5 145//5
f 141//2 129//2 123//2 148//2
f 138//1 126//1 124//1 136//1
f 103//2 126//2 128//2 107//2
f 146//1 134//1 135//1 147//1
f 107//2 128//2 135//2 121//2
f 139//5 127//5 134//5 146//5
f 138//2 104//2 108//2 140//2
f 106//5 139//5 146//5 120//5
f 120//1 146//1 147//1 122//1
f 104//1 138//1 136//1 100//1
f 110//2 141//2 148//2 97//2
f 100//5 136//5 145//5 118//5
f 97//1 148//1 137//1 102//1
f 102//5 137//5 139//5 106//5
f 112//2 142//2 141//2 110//2
f 118//6 145//6 144//6 116//6
f 126//2 138//2 140//2 128//2
f 128//2 140//2 147//2 135//2
f 116//5 144//5 143//5 114//5
f 156//2 149//2 150//2 155//2
f 154//2 153//2 151//2 152//2
f 160//2 157//2 158//2 159//2
f 112//4 110//4 151//4 153//4
f 87//3 88//3 154//3 152//3
f 130//4 129//4 158//4 157//4
f 109//3 111//3 156//3 155//3
f 110//6 87//6 152//6 151//6
f 129//6 141//6 159//6 158//6
f 77//6 109//6 155//6 150//6
f 141//3 142//3 160//3 159//3
f 78//4 77//4 150//4 149//4
f 161//6 163//6 164//6 162//6
f 167//2 161//2 162//2 168//2
f 166//3 168//3 162//3 164//3
f 163//4 161//4 167//4 165//4
f 163//5 165//5 166//5 164//5
f 169//6 171//6 172//6 170//6
f 171//5 175//5 176//5 172//5
f 175//1 173//1 174//1 176//1
f 173//2 169//2 170//2 174//2
f 171//4 169//4 173//4 175//4
f 176//3 174//3 170//3 172//3
f 181//5 179//5 180//5 182//5
f 179//1 177//1 178//1 180//1
f 181//4 183//4 177//4 179//4
f 180//3 178//3 184//3 182//3
f 177//2 183//2 184//2 178//2
f 189//5 187//5 188//5 190//5
f 187//1 185//1 186//1 188//1
f 189//4 191//4 185//4 187//4
f 188//3 186//3 192//3 190//3
f 185//2 191//2 192//2 186//2
f 197//5 195//5 196//5 198//5
f 195//1 193//1 194//1 196//1
f 197//4 199//4 193//4 195//4
f 196//3 194//3 200//3 198//3
f 193//2 199//2 200//2 194//2
f 234//6 232//6 204//6 210//6
f 237//2 231//2 202//2 220//2
f 209//3 220//3 202//3 207//3
f 232//5 241//5 224//5 204//5
f 206//4 201//4 217//4 225//4
f 222//3 209//3 207//3 210//3
f 231//6 233//6 207//6 202//6
f 224//3 222//3 210//3 204//3
f 203//4 211//4 223//4 226//4
f 211//3 213//3 223//3
f 213//4 214//4 225//4 223//4
f 235//6 236//6 216//6 215//6
f 207//4 215//4 216//4 210//4
f 225//4 214//4 206//4
f 244//2 246//2 213//2 211//2
f 233//5 235//5 215//5 207//5
f 225//4 217//4 218//4 208//4
f 219//3 205//3 220//3 209//3
f 238//2 237//2 220//2 205//2
f 212//3 219//3 209//3 222//3
f 223//4 225//4 208//4 221//4
f 227//3 212//3 222//3 229//3
f 241//1 240//1 229//1 224//1
f 240//5 239//5 227//5 229//5
f 223//4 221//4 228//4 230//4
f 275//5 273//5 239//5 240//5
f 277//1 275//1 240//1 241//1
f 261//5 265//5 235//5 233//5
f 210//2 216//2 236//2 234//2
f 235//4 253//4 254//4 236//4
f 258//6 261//6 233//6 231//6
f 259//5 277//5 241//5 232//5
f 269//2 258//2 231//2 237//2
f 263//6 259//6 232//6 234//6
f 211//6 203//6 242//6 244//6
f 217//2 201//2 252//2 247//2
f 203//5 226//5 251//5 242//5
f 201//6 206//6 243//6 252//6
f 214//6 213//6 246//6 245//6
f 206//5 214//5 245//5 243//5
f 218//2 217//2 247//2 248//2
f 226//1 230//1 250//1 251//1
f 230//5 228//5 249//5 250//5
f 264//2 268//2 246//2 244//2
f 279//6 281//6 254//6 253//6
f 268//2 282//2 256//2 246//2
f 246//3 256//3 255//3 245//3
f 265//5 279//5 253//5 235//5
f 245//5 255//5 280//5 266//5
f 287//5 294//5 279//5 265//5
f 236//2 254//2 281//2 267//2
f 255//6 256//6 282//6 280//6
f 294//6 295//6 281//6 279//6
f 234//2 236//2 267//2 263//2
f 300//2 307//2 282//2 268//2
f 244//6 242//6 260//6 264//6
f 286//6 284//6 259//6 263//6
f 247//2 252//2 257//2 270//2
f 289//2 283//2 258//2 269//2
f 242//5 251//5 278//5 260//5
f 284//5 293//5 277//5 259//5
f 252//6 243//6 262//6 257//6
f 283//6 285//6 261//6 258//6
f 243//5 245//5 266//5 262//5
f 285//5 287//5 265//5 261//5
f 290//2 289//2 269//2 271//2
f 251//1 250//1 276//1 278//1
f 293//1 292//1 275//1 277//1
f 250//5 249//5 274//5 276//5
f 292//5 291//5 273//5 275//5
f 304//5 303//5 291//5 292//5
f 305//1 304//1 292//1 293//1
f 297//5 299//5 287//5 285//5
f 308//6 297//6 285//6 283//6
f 296//5 305//5 293//5 284//5
f 301//2 308//2 283//2 289//2
f 298//6 296//6 284//6 286//6
f 263//2 267//2 288//2 286//2
f 306//6 307//6 295//6 294//6
f 267//2 281//2 295//2 288//2
f 299//5 306//5 294//5 287//5
f 298//2 300//2 268//2 264//2
f 266//5 280//5 306//5 299//5
f 280//6 282//6 307//6 306//6
f 264//6 260//6 296//6 298//6
f 270//2 257//2 308//2 301//2
f 260//5 278//5 305//5 296//5
f 257//6 262//6 297//6 308//6
f 262//5 266//5 299//5 297//5
f 272//2 270//2 301//2 302//2
f 278//1 276//1 304//1 305//1
f 286//2 288//2 300//2 298//2
f 288//2 295//2 307//2 300//2
f 276//5 274//5 303//5 304//5
f 316//2 315//2 310//2 309//2
f 314//2 312//2 311//2 313//2
f 320//2 319//2 318//2 317//2
f 272//4 313//4 311//4 270//4
f 247//3 312//3 314//3 248//3
f 290//4 317//4 318//4 289//4
f 269//3 315//3 316//3 271//3
f 270//1 311//1 312//1 247//1
f 289//1 318//1 319//1 301//1
f 237//1 310//1 315//1 269//1
f 301//3 319//3 320//3 302//3
f 238//4 309//4 310//4 237//4
