# UyDosh storage6 catalog variant (imported from Desktop/3D)
mtllib storage6.mtl
g storage6
# UyDosh storage6 catalog variant (imported from Desktop/3D)
v -0.500000 0.593500 -0.133899
v -0.500000 0.608500 -0.133899
v 0.500000 0.608500 -0.133899
v 0.500000 0.593500 -0.133899
v -0.500000 0.593500 0.116101
v -0.500000 0.608500 0.116101
v 0.500000 0.608500 0.116101
v 0.500000 0.593500 0.116101
v -0.491600 0.585000 -0.125499
v 0.491600 0.585000 -0.125499
v -0.491600 0.585000 0.107701
v 0.491600 0.585000 0.107701
v -0.491600 0.180000 -0.125499
v 0.491600 0.180000 -0.125499
v -0.491600 0.180000 0.107701
v 0.491600 0.180000 0.107701
v -0.450000 0.608500 -0.133899
v -0.450000 0.593500 -0.133899
v -0.440000 0.608500 -0.133899
v -0.440000 0.593500 -0.133899
v 0.440000 0.608500 -0.133899
v 0.440000 0.593500 -0.133899
v 0.450000 0.608500 -0.133899
v 0.450000 0.593500 -0.133899
v -0.450000 0.608500 0.116101
v -0.440000 0.608500 0.116101
v 0.440000 0.608500 0.116101
v 0.450000 0.608500 0.116101
v -0.450000 0.593500 0.116101
v -0.440000 0.593500 0.116101
v 0.440000 0.593500 0.116101
v 0.450000 0.593500 0.116101
v -0.442440 0.585000 -0.125499
v -0.432608 0.585000 -0.125499
v 0.432608 0.585000 -0.125499
v 0.442440 0.585000 -0.125499
v -0.442440 0.585000 0.107701
v -0.432608 0.585000 0.107701
v 0.432608 0.585000 0.107701
v 0.442440 0.585000 0.107701
v -0.442440 0.180000 0.107701
v -0.432608 0.180000 0.107701
v 0.432608 0.180000 0.107701
v 0.442440 0.180000 0.107701
v -0.442440 0.180000 -0.125499
v -0.432608 0.180000 -0.125499
v 0.432608 0.180000 -0.125499
v 0.442440 0.180000 -0.125499
v 0.017600 0.593500 -0.133899
v 0.017600 0.608500 -0.133899
v -0.017600 0.593500 -0.133899
v -0.017600 0.608500 -0.133899
v 0.017600 0.608500 0.116101
v -0.017600 0.608500 0.116101
v 0.017600 0.593500 0.116101
v -0.017600 0.593500 0.116101
v 0.017304 0.585000 -0.125499
v -0.017304 0.585000 -0.125499
v 0.017304 0.585000 0.107701
v -0.017304 0.585000 0.107701
v -0.500000 0.593500 -0.083899
v -0.500000 0.608500 -0.083899
v -0.500000 0.593500 0.066101
v -0.500000 0.608500 0.066101
v 0.500000 0.608500 -0.083899
v 0.500000 0.593500 -0.083899
v 0.500000 0.608500 0.066101
v 0.500000 0.593500 0.066101
v 0.491600 0.585000 -0.078859
v 0.491600 0.585000 0.061061
v -0.491600 0.585000 -0.078859
v -0.491600 0.585000 0.061061
v -0.491600 0.180000 -0.078859
v -0.491600 0.180000 0.061061
v 0.491600 0.180000 -0.078859
v 0.491600 0.180000 0.061061
v -0.442440 0.180000 -0.078859
v -0.442440 0.180000 0.061061
v 0.442440 0.180000 -0.078859
v 0.442440 0.180000 0.061061
v -0.491600 0.120000 -0.125499
v 0.491600 0.120000 -0.125499
v -0.491600 0.120000 0.107701
v 0.491600 0.120000 0.107701
v -0.442440 0.120000 0.107701
v 0.442440 0.120000 0.107701
v -0.442440 0.120000 -0.125499
v 0.442440 0.120000 -0.125499
v -0.491600 0.120000 -0.078859
v -0.491600 0.120000 0.061061
v 0.491600 0.120000 -0.078859
v 0.491600 0.120000 0.061061
v -0.442440 0.120000 -0.078859
v -0.442440 0.120000 0.061061
v 0.442440 0.120000 -0.078859
v 0.442440 0.120000 0.061061
v -0.488600 0.110000 -0.122499
v 0.488600 0.110000 -0.122499
v -0.488600 0.110000 0.104701
v 0.488600 0.110000 0.104701
v -0.445440 0.110000 0.104701
v 0.445440 0.110000 0.104701
v -0.445440 0.110000 -0.122499
v 0.445440 0.110000 -0.122499
v -0.488600 0.110000 -0.081859
v -0.488600 0.110000 0.064061
v 0.488600 0.110000 -0.081859
v 0.488600 0.110000 0.064061
v -0.445440 0.110000 -0.081859
v -0.445440 0.110000 0.064061
v 0.445440 0.110000 -0.081859
v 0.445440 0.110000 0.064061
v -0.486600 0.065000 -0.120499
v 0.486600 0.065000 -0.120499
v -0.486600 0.065000 0.102701
v 0.486600 0.065000 0.102701
v -0.447440 0.065000 0.102701
v 0.447440 0.065000 0.102701
v -0.447440 0.065000 -0.120499
v 0.447440 0.065000 -0.120499
v -0.486600 0.065000 -0.083859
v -0.486600 0.065000 0.066061
v 0.486600 0.065000 -0.083859
v 0.486600 0.065000 0.066061
v -0.447440 0.065000 -0.083859
v -0.447440 0.065000 0.066061
v 0.447440 0.065000 -0.083859
v 0.447440 0.065000 0.066061
v -0.492600 0.055000 -0.126499
v 0.492600 0.055000 -0.126499
v -0.492600 0.055000 0.108701
v 0.492600 0.055000 0.108701
v -0.441440 0.055000 0.108701
v 0.441440 0.055000 0.108701
v -0.441440 0.055000 -0.126499
v 0.441440 0.055000 -0.126499
v -0.492600 0.055000 -0.077859
v -0.492600 0.055000 0.060061
v 0.492600 0.055000 -0.077859
v 0.492600 0.055000 0.060061
v -0.441440 0.055000 -0.077859
v -0.441440 0.055000 0.060061
v 0.441440 0.055000 -0.077859
v 0.441440 0.055000 0.060061
v -0.483600 0.000000 -0.117499
v 0.483600 0.000000 -0.117499
v -0.483600 0.000000 0.099701
v 0.483600 0.000000 0.099701
v -0.450440 0.000000 0.099701
v 0.450440 0.000000 0.099701
v -0.450440 0.000000 -0.117499
v 0.450440 0.000000 -0.117499
v -0.483600 0.000000 -0.086859
v -0.483600 0.000000 0.069061
v 0.483600 0.000000 -0.086859
v 0.483600 0.000000 0.069061
v -0.450440 0.000000 -0.086859
v -0.450440 0.000000 0.069061
v 0.450440 0.000000 -0.086859
v 0.450440 0.000000 0.069061
v -0.491600 0.552600 0.107701
v -0.442440 0.552600 0.107701
v -0.491600 0.431100 0.107701
v -0.442440 0.431100 0.107701
v -0.491600 0.309600 0.107701
v -0.442440 0.309600 0.107701
v -0.432608 0.552600 0.107701
v -0.432608 0.463500 0.107701
v -0.432608 0.431100 0.107701
v -0.432608 0.342000 0.107701
v -0.432608 0.309600 0.107701
v -0.432608 0.220500 0.107701
v 0.432608 0.552600 0.107701
v 0.442440 0.552600 0.107701
v 0.432608 0.463500 0.107701
v 0.432608 0.431100 0.107701
v 0.432608 0.342000 0.107701
v 0.432608 0.309600 0.107701
v 0.432608 0.220500 0.107701
v 0.491600 0.552600 0.107701
v 0.017304 0.552600 0.107701
v 0.017304 0.463500 0.107701
v 0.017304 0.431100 0.107701
v 0.017304 0.342000 0.107701
v 0.017304 0.309600 0.107701
v 0.017304 0.220500 0.107701
v -0.017304 0.552600 0.107701
v -0.017304 0.463500 0.107701
v -0.017304 0.431100 0.107701
v -0.017304 0.342000 0.107701
v -0.017304 0.309600 0.107701
v -0.017304 0.220500 0.107701
v -0.427608 0.547600 0.112701
v -0.427608 0.468500 0.112701
v -0.427608 0.426100 0.112701
v -0.427608 0.347000 0.112701
v -0.427608 0.304600 0.112701
v -0.427608 0.225500 0.112701
v 0.427608 0.547600 0.112701
v 0.427608 0.468500 0.112701
v 0.427608 0.426100 0.112701
v 0.427608 0.347000 0.112701
v 0.427608 0.304600 0.112701
v 0.427608 0.225500 0.112701
v 0.022304 0.547600 0.112701
v 0.022304 0.468500 0.112701
v 0.022304 0.426100 0.112701
v 0.022304 0.347000 0.112701
v 0.022304 0.304600 0.112701
v 0.022304 0.225500 0.112701
v -0.022304 0.547600 0.112701
v -0.022304 0.468500 0.112701
v -0.022304 0.426100 0.112701
v -0.022304 0.347000 0.112701
v -0.022304 0.304600 0.112701
v -0.022304 0.225500 0.112701
v 0.191752 0.252103 0.111101
v 0.191752 0.279441 0.111101
v 0.213832 0.279441 0.111101
v 0.213832 0.252103 0.111101
v 0.191752 0.252103 0.117101
v 0.191752 0.279441 0.117101
v 0.213832 0.279441 0.117101
v 0.213832 0.252103 0.117101
v 0.181192 0.258801 0.111101
v 0.181192 0.272743 0.111101
v 0.181192 0.258801 0.117101
v 0.181192 0.272743 0.117101
v 0.217672 0.283086 0.111101
v 0.217672 0.248914 0.111101
v 0.217672 0.283086 0.117101
v 0.217672 0.248914 0.117101
v 0.241096 0.283086 0.111101
v 0.241096 0.248914 0.111101
v 0.241096 0.283086 0.117101
v 0.241096 0.248914 0.117101
v 0.245704 0.279242 0.111101
v 0.245704 0.252758 0.111101
v 0.245704 0.279242 0.117101
v 0.245704 0.252758 0.117101
v 0.266824 0.279242 0.111101
v 0.266824 0.252758 0.111101
v 0.266824 0.279242 0.117101
v 0.266824 0.252758 0.117101
v 0.276808 0.274342 0.111101
v 0.276808 0.257658 0.111101
v 0.276808 0.274342 0.117101
v 0.276808 0.257658 0.117101
v 0.214215 0.252000 0.125101
v 0.217230 0.243081 0.127659
v 0.225122 0.237569 0.129239
v 0.234878 0.237569 0.129239
v 0.242770 0.243081 0.127659
v 0.245785 0.252000 0.125101
v 0.242770 0.260919 0.122544
v 0.234878 0.266431 0.120963
v 0.225122 0.266431 0.120963
v 0.217230 0.260919 0.122544
v 0.213305 0.251220 0.122382
v 0.216493 0.241787 0.125087
v 0.224841 0.235957 0.126759
v 0.235159 0.235957 0.126759
v 0.243507 0.241787 0.125087
v 0.246695 0.251220 0.122382
v 0.243507 0.260653 0.119677
v 0.235159 0.266483 0.118006
v 0.224841 0.266483 0.118006
v 0.216493 0.260653 0.119677
v 0.211108 0.250898 0.121256
v 0.214716 0.240223 0.124317
v 0.224162 0.233626 0.126209
v 0.235838 0.233626 0.126209
v 0.245284 0.240223 0.124317
v 0.248892 0.250898 0.121256
v 0.245284 0.261572 0.118195
v 0.235838 0.268169 0.116304
v 0.224162 0.268169 0.116304
v 0.214716 0.261572 0.118195
v 0.208910 0.251220 0.122382
v 0.212938 0.239304 0.125799
v 0.223483 0.231940 0.127911
v 0.236517 0.231940 0.127911
v 0.247062 0.239304 0.125799
v 0.251090 0.251220 0.122382
v 0.247062 0.263137 0.118965
v 0.236517 0.270501 0.116854
v 0.223483 0.270501 0.116854
v 0.212938 0.263137 0.118965
v 0.208000 0.252000 0.125101
v 0.212202 0.239570 0.128666
v 0.223202 0.231887 0.130868
v 0.236798 0.231887 0.130868
v 0.247798 0.239570 0.128666
v 0.252000 0.252000 0.125101
v 0.247798 0.264430 0.121537
v 0.236798 0.272113 0.119334
v 0.223202 0.272113 0.119334
v 0.212202 0.264430 0.121537
v 0.208910 0.252780 0.127820
v 0.212938 0.240864 0.131237
v 0.223483 0.233499 0.133349
v 0.236517 0.233499 0.133349
v 0.247062 0.240864 0.131237
v 0.251090 0.252780 0.127820
v 0.247062 0.264696 0.124403
v 0.236517 0.272060 0.122291
v 0.223483 0.272060 0.122291
v 0.212938 0.264696 0.124403
v 0.211108 0.253103 0.128946
v 0.214716 0.242428 0.132007
v 0.224162 0.235831 0.133899
v 0.235838 0.235831 0.133899
v 0.245284 0.242428 0.132007
v 0.248892 0.253103 0.128946
v 0.245284 0.263777 0.125885
v 0.235838 0.270374 0.123994
v 0.224162 0.270374 0.123994
v 0.214716 0.263777 0.125885
v 0.213305 0.252780 0.127820
v 0.216493 0.243347 0.130525
v 0.224841 0.237517 0.132197
v 0.235159 0.237517 0.132197
v 0.243507 0.243347 0.130525
v 0.246695 0.252780 0.127820
v 0.243507 0.262213 0.125115
v 0.235159 0.268043 0.123443
v 0.224841 0.268043 0.123443
v 0.216493 0.262213 0.125115
v 0.221672 0.279086 0.127101
v 0.221672 0.252914 0.127101
v 0.237096 0.279086 0.127101
v 0.237096 0.252914 0.127101
v 0.191752 0.497103 0.111101
v 0.191752 0.524441 0.111101
v 0.213832 0.524441 0.111101
v 0.213832 0.497103 0.111101
v 0.191752 0.497103 0.117101
v 0.191752 0.524441 0.117101
v 0.213832 0.524441 0.117101
v 0.213832 0.497103 0.117101
v 0.181192 0.503801 0.111101
v 0.181192 0.517743 0.111101
v 0.181192 0.503801 0.117101
v 0.181192 0.517743 0.117101
v 0.217672 0.528086 0.111101
v 0.217672 0.493914 0.111101
v 0.217672 0.528086 0.117101
v 0.217672 0.493914 0.117101
v 0.241096 0.528086 0.111101
v 0.241096 0.493914 0.111101
v 0.241096 0.528086 0.117101
v 0.241096 0.493914 0.117101
v 0.245704 0.524242 0.111101
v 0.245704 0.497758 0.111101
v 0.245704 0.524242 0.117101
v 0.245704 0.497758 0.117101
v 0.266824 0.524242 0.111101
v 0.266824 0.497758 0.111101
v 0.266824 0.524242 0.117101
v 0.266824 0.497758 0.117101
v 0.276808 0.519342 0.111101
v 0.276808 0.502658 0.111101
v 0.276808 0.519342 0.117101
v 0.276808 0.502658 0.117101
v 0.214215 0.497000 0.125101
v 0.217230 0.488081 0.127659
v 0.225122 0.482569 0.129239
v 0.234878 0.482569 0.129239
v 0.242770 0.488081 0.127659
v 0.245785 0.497000 0.125101
v 0.242770 0.505919 0.122544
v 0.234878 0.511431 0.120963
v 0.225122 0.511431 0.120963
v 0.217230 0.505919 0.122544
v 0.213305 0.496220 0.122382
v 0.216493 0.486787 0.125087
v 0.224841 0.480957 0.126759
v 0.235159 0.480957 0.126759
v 0.243507 0.486787 0.125087
v 0.246695 0.496220 0.122382
v 0.243507 0.505653 0.119677
v 0.235159 0.511483 0.118006
v 0.224841 0.511483 0.118006
v 0.216493 0.505653 0.119677
v 0.211108 0.495897 0.121256
v 0.214716 0.485223 0.124317
v 0.224162 0.478626 0.126209
v 0.235838 0.478626 0.126209
v 0.245284 0.485223 0.124317
v 0.248892 0.495897 0.121256
v 0.245284 0.506572 0.118195
v 0.235838 0.513169 0.116304
v 0.224162 0.513169 0.116304
v 0.214716 0.506572 0.118195
v 0.208910 0.496220 0.122382
v 0.212938 0.484304 0.125799
v 0.223483 0.476940 0.127911
v 0.236517 0.476940 0.127911
v 0.247062 0.484304 0.125799
v 0.251090 0.496220 0.122382
v 0.247062 0.508136 0.118965
v 0.236517 0.515501 0.116854
v 0.223483 0.515501 0.116854
v 0.212938 0.508136 0.118965
v 0.208000 0.497000 0.125101
v 0.212202 0.484570 0.128666
v 0.223202 0.476887 0.130868
v 0.236798 0.476887 0.130868
v 0.247798 0.484570 0.128666
v 0.252000 0.497000 0.125101
v 0.247798 0.509430 0.121537
v 0.236798 0.517113 0.119334
v 0.223202 0.517113 0.119334
v 0.212202 0.509430 0.121537
v 0.208910 0.497780 0.127820
v 0.212938 0.485864 0.131237
v 0.223483 0.478499 0.133349
v 0.236517 0.478499 0.133349
v 0.247062 0.485864 0.131237
v 0.251090 0.497780 0.127820
v 0.247062 0.509696 0.124403
v 0.236517 0.517060 0.122291
v 0.223483 0.517060 0.122291
v 0.212938 0.509696 0.124403
v 0.211108 0.498103 0.128946
v 0.214716 0.487428 0.132007
v 0.224162 0.480831 0.133899
v 0.235838 0.480831 0.133899
v 0.245284 0.487428 0.132007
v 0.248892 0.498103 0.128946
v 0.245284 0.508777 0.125885
v 0.235838 0.515374 0.123994
v 0.224162 0.515374 0.123994
v 0.214716 0.508777 0.125885
v 0.213305 0.497780 0.127820
v 0.216493 0.488347 0.130525
v 0.224841 0.482517 0.132197
v 0.235159 0.482517 0.132197
v 0.243507 0.488347 0.130525
v 0.246695 0.497780 0.127820
v 0.243507 0.507213 0.125115
v 0.235159 0.513043 0.123443
v 0.224841 0.513043 0.123443
v 0.216493 0.507213 0.125115
v 0.221672 0.524086 0.127101
v 0.221672 0.497914 0.127101
v 0.237096 0.524086 0.127101
v 0.237096 0.497914 0.127101
v 0.191752 0.374103 0.111101
v 0.191752 0.401441 0.111101
v 0.213832 0.401441 0.111101
v 0.213832 0.374103 0.111101
v 0.191752 0.374103 0.117101
v 0.191752 0.401441 0.117101
v 0.213832 0.401441 0.117101
v 0.213832 0.374103 0.117101
v 0.181192 0.380801 0.111101
v 0.181192 0.394743 0.111101
v 0.181192 0.380801 0.117101
v 0.181192 0.394743 0.117101
v 0.217672 0.405086 0.111101
v 0.217672 0.370914 0.111101
v 0.217672 0.405086 0.117101
v 0.217672 0.370914 0.117101
v 0.241096 0.405086 0.111101
v 0.241096 0.370914 0.111101
v 0.241096 0.405086 0.117101
v 0.241096 0.370914 0.117101
v 0.245704 0.401242 0.111101
v 0.245704 0.374758 0.111101
v 0.245704 0.401242 0.117101
v 0.245704 0.374758 0.117101
v 0.266824 0.401242 0.111101
v 0.266824 0.374758 0.111101
v 0.266824 0.401242 0.117101
v 0.266824 0.374758 0.117101
v 0.276808 0.396342 0.111101
v 0.276808 0.379658 0.111101
v 0.276808 0.396342 0.117101
v 0.276808 0.379658 0.117101
v 0.214215 0.374000 0.125101
v 0.217230 0.365081 0.127659
v 0.225122 0.359569 0.129239
v 0.234878 0.359569 0.129239
v 0.242770 0.365081 0.127659
v 0.245785 0.374000 0.125101
v 0.242770 0.382919 0.122544
v 0.234878 0.388431 0.120963
v 0.225122 0.388431 0.120963
v 0.217230 0.382919 0.122544
v 0.213305 0.373220 0.122382
v 0.216493 0.363787 0.125087
v 0.224841 0.357957 0.126759
v 0.235159 0.357957 0.126759
v 0.243507 0.363787 0.125087
v 0.246695 0.373220 0.122382
v 0.243507 0.382653 0.119677
v 0.235159 0.388483 0.118006
v 0.224841 0.388483 0.118006
v 0.216493 0.382653 0.119677
v 0.211108 0.372898 0.121256
v 0.214716 0.362223 0.124317
v 0.224162 0.355626 0.126209
v 0.235838 0.355626 0.126209
v 0.245284 0.362223 0.124317
v 0.248892 0.372898 0.121256
v 0.245284 0.383572 0.118195
v 0.235838 0.390169 0.116304
v 0.224162 0.390169 0.116304
v 0.214716 0.383572 0.118195
v 0.208910 0.373220 0.122382
v 0.212938 0.361304 0.125799
v 0.223483 0.353940 0.127911
v 0.236517 0.353940 0.127911
v 0.247062 0.361304 0.125799
v 0.251090 0.373220 0.122382
v 0.247062 0.385137 0.118965
v 0.236517 0.392501 0.116854
v 0.223483 0.392501 0.116854
v 0.212938 0.385137 0.118965
v 0.208000 0.374000 0.125101
v 0.212202 0.361570 0.128666
v 0.223202 0.353887 0.130868
v 0.236798 0.353887 0.130868
v 0.247798 0.361570 0.128666
v 0.252000 0.374000 0.125101
v 0.247798 0.386430 0.121537
v 0.236798 0.394113 0.119334
v 0.223202 0.394113 0.119334
v 0.212202 0.386430 0.121537
v 0.208910 0.374780 0.127820
v 0.212938 0.362864 0.131237
v 0.223483 0.355499 0.133349
v 0.236517 0.355499 0.133349
v 0.247062 0.362864 0.131237
v 0.251090 0.374780 0.127820
v 0.247062 0.386696 0.124403
v 0.236517 0.394060 0.122291
v 0.223483 0.394060 0.122291
v 0.212938 0.386696 0.124403
v 0.211108 0.375103 0.128946
v 0.214716 0.364428 0.132007
v 0.224162 0.357831 0.133899
v 0.235838 0.357831 0.133899
v 0.245284 0.364428 0.132007
v 0.248892 0.375103 0.128946
v 0.245284 0.385777 0.125885
v 0.235838 0.392374 0.123994
v 0.224162 0.392374 0.123994
v 0.214716 0.385777 0.125885
v 0.213305 0.374780 0.127820
v 0.216493 0.365347 0.130525
v 0.224841 0.359517 0.132197
v 0.235159 0.359517 0.132197
v 0.243507 0.365347 0.130525
v 0.246695 0.374780 0.127820
v 0.243507 0.384213 0.125115
v 0.235159 0.390043 0.123443
v 0.224841 0.390043 0.123443
v 0.216493 0.384213 0.125115
v 0.221672 0.401086 0.127101
v 0.221672 0.374914 0.127101
v 0.237096 0.401086 0.127101
v 0.237096 0.374914 0.127101
v -0.264248 0.252103 0.111101
v -0.264248 0.279441 0.111101
v -0.242168 0.279441 0.111101
v -0.242168 0.252103 0.111101
v -0.264248 0.252103 0.117101
v -0.264248 0.279441 0.117101
v -0.242168 0.279441 0.117101
v -0.242168 0.252103 0.117101
v -0.274808 0.258801 0.111101
v -0.274808 0.272743 0.111101
v -0.274808 0.258801 0.117101
v -0.274808 0.272743 0.117101
v -0.238328 0.283086 0.111101
v -0.238328 0.248914 0.111101
v -0.238328 0.283086 0.117101
v -0.238328 0.248914 0.117101
v -0.214904 0.283086 0.111101
v -0.214904 0.248914 0.111101
v -0.214904 0.283086 0.117101
v -0.214904 0.248914 0.117101
v -0.210296 0.279242 0.111101
v -0.210296 0.252758 0.111101
v -0.210296 0.279242 0.117101
v -0.210296 0.252758 0.117101
v -0.189176 0.279242 0.111101
v -0.189176 0.252758 0.111101
v -0.189176 0.279242 0.117101
v -0.189176 0.252758 0.117101
v -0.179192 0.274342 0.111101
v -0.179192 0.257658 0.111101
v -0.179192 0.274342 0.117101
v -0.179192 0.257658 0.117101
v -0.241785 0.252000 0.125101
v -0.238770 0.243081 0.127659
v -0.230878 0.237569 0.129239
v -0.221122 0.237569 0.129239
v -0.213230 0.243081 0.127659
v -0.210215 0.252000 0.125101
v -0.213230 0.260919 0.122544
v -0.221122 0.266431 0.120963
v -0.230878 0.266431 0.120963
v -0.238770 0.260919 0.122544
v -0.242695 0.251220 0.122382
v -0.239507 0.241787 0.125087
v -0.231159 0.235957 0.126759
v -0.220841 0.235957 0.126759
v -0.212493 0.241787 0.125087
v -0.209305 0.251220 0.122382
v -0.212493 0.260653 0.119677
v -0.220841 0.266483 0.118006
v -0.231159 0.266483 0.118006
v -0.239507 0.260653 0.119677
v -0.244892 0.250898 0.121256
v -0.241284 0.240223 0.124317
v -0.231838 0.233626 0.126209
v -0.220162 0.233626 0.126209
v -0.210716 0.240223 0.124317
v -0.207108 0.250898 0.121256
v -0.210716 0.261572 0.118195
v -0.220162 0.268169 0.116304
v -0.231838 0.268169 0.116304
v -0.241284 0.261572 0.118195
v -0.247090 0.251220 0.122382
v -0.243062 0.239304 0.125799
v -0.232517 0.231940 0.127911
v -0.219483 0.231940 0.127911
v -0.208938 0.239304 0.125799
v -0.204910 0.251220 0.122382
v -0.208938 0.263137 0.118965
v -0.219483 0.270501 0.116854
v -0.232517 0.270501 0.116854
v -0.243062 0.263137 0.118965
v -0.248000 0.252000 0.125101
v -0.243798 0.239570 0.128666
v -0.232798 0.231887 0.130868
v -0.219202 0.231887 0.130868
v -0.208202 0.239570 0.128666
v -0.204000 0.252000 0.125101
v -0.208202 0.264430 0.121537
v -0.219202 0.272113 0.119334
v -0.232798 0.272113 0.119334
v -0.243798 0.264430 0.121537
v -0.247090 0.252780 0.127820
v -0.243062 0.240864 0.131237
v -0.232517 0.233499 0.133349
v -0.219483 0.233499 0.133349
v -0.208938 0.240864 0.131237
v -0.204910 0.252780 0.127820
v -0.208938 0.264696 0.124403
v -0.219483 0.272060 0.122291
v -0.232517 0.272060 0.122291
v -0.243062 0.264696 0.124403
v -0.244892 0.253103 0.128946
v -0.241284 0.242428 0.132007
v -0.231838 0.235831 0.133899
v -0.220162 0.235831 0.133899
v -0.210716 0.242428 0.132007
v -0.207108 0.253103 0.128946
v -0.210716 0.263777 0.125885
v -0.220162 0.270374 0.123994
v -0.231838 0.270374 0.123994
v -0.241284 0.263777 0.125885
v -0.242695 0.252780 0.127820
v -0.239507 0.243347 0.130525
v -0.231159 0.237517 0.132197
v -0.220841 0.237517 0.132197
v -0.212493 0.243347 0.130525
v -0.209305 0.252780 0.127820
v -0.212493 0.262213 0.125115
v -0.220841 0.268043 0.123443
v -0.231159 0.268043 0.123443
v -0.239507 0.262213 0.125115
v -0.234328 0.279086 0.127101
v -0.234328 0.252914 0.127101
v -0.218904 0.279086 0.127101
v -0.218904 0.252914 0.127101
v -0.264248 0.497103 0.111101
v -0.264248 0.524441 0.111101
v -0.242168 0.524441 0.111101
v -0.242168 0.497103 0.111101
v -0.264248 0.497103 0.117101
v -0.264248 0.524441 0.117101
v -0.242168 0.524441 0.117101
v -0.242168 0.497103 0.117101
v -0.274808 0.503801 0.111101
v -0.274808 0.517743 0.111101
v -0.274808 0.503801 0.117101
v -0.274808 0.517743 0.117101
v -0.238328 0.528086 0.111101
v -0.238328 0.493914 0.111101
v -0.238328 0.528086 0.117101
v -0.238328 0.493914 0.117101
v -0.214904 0.528086 0.111101
v -0.214904 0.493914 0.111101
v -0.214904 0.528086 0.117101
v -0.214904 0.493914 0.117101
v -0.210296 0.524242 0.111101
v -0.210296 0.497758 0.111101
v -0.210296 0.524242 0.117101
v -0.210296 0.497758 0.117101
v -0.189176 0.524242 0.111101
v -0.189176 0.497758 0.111101
v -0.189176 0.524242 0.117101
v -0.189176 0.497758 0.117101
v -0.179192 0.519342 0.111101
v -0.179192 0.502658 0.111101
v -0.179192 0.519342 0.117101
v -0.179192 0.502658 0.117101
v -0.241785 0.497000 0.125101
v -0.238770 0.488081 0.127659
v -0.230878 0.482569 0.129239
v -0.221122 0.482569 0.129239
v -0.213230 0.488081 0.127659
v -0.210215 0.497000 0.125101
v -0.213230 0.505919 0.122544
v -0.221122 0.511431 0.120963
v -0.230878 0.511431 0.120963
v -0.238770 0.505919 0.122544
v -0.242695 0.496220 0.122382
v -0.239507 0.486787 0.125087
v -0.231159 0.480957 0.126759
v -0.220841 0.480957 0.126759
v -0.212493 0.486787 0.125087
v -0.209305 0.496220 0.122382
v -0.212493 0.505653 0.119677
v -0.220841 0.511483 0.118006
v -0.231159 0.511483 0.118006
v -0.239507 0.505653 0.119677
v -0.244892 0.495897 0.121256
v -0.241284 0.485223 0.124317
v -0.231838 0.478626 0.126209
v -0.220162 0.478626 0.126209
v -0.210716 0.485223 0.124317
v -0.207108 0.495897 0.121256
v -0.210716 0.506572 0.118195
v -0.220162 0.513169 0.116304
v -0.231838 0.513169 0.116304
v -0.241284 0.506572 0.118195
v -0.247090 0.496220 0.122382
v -0.243062 0.484304 0.125799
v -0.232517 0.476940 0.127911
v -0.219483 0.476940 0.127911
v -0.208938 0.484304 0.125799
v -0.204910 0.496220 0.122382
v -0.208938 0.508136 0.118965
v -0.219483 0.515501 0.116854
v -0.232517 0.515501 0.116854
v -0.243062 0.508136 0.118965
v -0.248000 0.497000 0.125101
v -0.243798 0.484570 0.128666
v -0.232798 0.476887 0.130868
v -0.219202 0.476887 0.130868
v -0.208202 0.484570 0.128666
v -0.204000 0.497000 0.125101
v -0.208202 0.509430 0.121537
v -0.219202 0.517113 0.119334
v -0.232798 0.517113 0.119334
v -0.243798 0.509430 0.121537
v -0.247090 0.497780 0.127820
v -0.243062 0.485864 0.131237
v -0.232517 0.478499 0.133349
v -0.219483 0.478499 0.133349
v -0.208938 0.485864 0.131237
v -0.204910 0.497780 0.127820
v -0.208938 0.509696 0.124403
v -0.219483 0.517060 0.122291
v -0.232517 0.517060 0.122291
v -0.243062 0.509696 0.124403
v -0.244892 0.498103 0.128946
v -0.241284 0.487428 0.132007
v -0.231838 0.480831 0.133899
v -0.220162 0.480831 0.133899
v -0.210716 0.487428 0.132007
v -0.207108 0.498103 0.128946
v -0.210716 0.508777 0.125885
v -0.220162 0.515374 0.123994
v -0.231838 0.515374 0.123994
v -0.241284 0.508777 0.125885
v -0.242695 0.497780 0.127820
v -0.239507 0.488347 0.130525
v -0.231159 0.482517 0.132197
v -0.220841 0.482517 0.132197
v -0.212493 0.488347 0.130525
v -0.209305 0.497780 0.127820
v -0.212493 0.507213 0.125115
v -0.220841 0.513043 0.123443
v -0.231159 0.513043 0.123443
v -0.239507 0.507213 0.125115
v -0.234328 0.524086 0.127101
v -0.234328 0.497914 0.127101
v -0.218904 0.524086 0.127101
v -0.218904 0.497914 0.127101
v -0.264248 0.374103 0.111101
v -0.264248 0.401441 0.111101
v -0.242168 0.401441 0.111101
v -0.242168 0.374103 0.111101
v -0.264248 0.374103 0.117101
v -0.264248 0.401441 0.117101
v -0.242168 0.401441 0.117101
v -0.242168 0.374103 0.117101
v -0.274808 0.380801 0.111101
v -0.274808 0.394743 0.111101
v -0.274808 0.380801 0.117101
v -0.274808 0.394743 0.117101
v -0.238328 0.405086 0.111101
v -0.238328 0.370914 0.111101
v -0.238328 0.405086 0.117101
v -0.238328 0.370914 0.117101
v -0.214904 0.405086 0.111101
v -0.214904 0.370914 0.111101
v -0.214904 0.405086 0.117101
v -0.214904 0.370914 0.117101
v -0.210296 0.401242 0.111101
v -0.210296 0.374758 0.111101
v -0.210296 0.401242 0.117101
v -0.210296 0.374758 0.117101
v -0.189176 0.401242 0.111101
v -0.189176 0.374758 0.111101
v -0.189176 0.401242 0.117101
v -0.189176 0.374758 0.117101
v -0.179192 0.396342 0.111101
v -0.179192 0.379658 0.111101
v -0.179192 0.396342 0.117101
v -0.179192 0.379658 0.117101
v -0.241785 0.374000 0.125101
v -0.238770 0.365081 0.127659
v -0.230878 0.359569 0.129239
v -0.221122 0.359569 0.129239
v -0.213230 0.365081 0.127659
v -0.210215 0.374000 0.125101
v -0.213230 0.382919 0.122544
v -0.221122 0.388431 0.120963
v -0.230878 0.388431 0.120963
v -0.238770 0.382919 0.122544
v -0.242695 0.373220 0.122382
v -0.239507 0.363787 0.125087
v -0.231159 0.357957 0.126759
v -0.220841 0.357957 0.126759
v -0.212493 0.363787 0.125087
v -0.209305 0.373220 0.122382
v -0.212493 0.382653 0.119677
v -0.220841 0.388483 0.118006
v -0.231159 0.388483 0.118006
v -0.239507 0.382653 0.119677
v -0.244892 0.372898 0.121256
v -0.241284 0.362223 0.124317
v -0.231838 0.355626 0.126209
v -0.220162 0.355626 0.126209
v -0.210716 0.362223 0.124317
v -0.207108 0.372898 0.121256
v -0.210716 0.383572 0.118195
v -0.220162 0.390169 0.116304
v -0.231838 0.390169 0.116304
v -0.241284 0.383572 0.118195
v -0.247090 0.373220 0.122382
v -0.243062 0.361304 0.125799
v -0.232517 0.353940 0.127911
v -0.219483 0.353940 0.127911
v -0.208938 0.361304 0.125799
v -0.204910 0.373220 0.122382
v -0.208938 0.385137 0.118965
v -0.219483 0.392501 0.116854
v -0.232517 0.392501 0.116854
v -0.243062 0.385137 0.118965
v -0.248000 0.374000 0.125101
v -0.243798 0.361570 0.128666
v -0.232798 0.353887 0.130868
v -0.219202 0.353887 0.130868
v -0.208202 0.361570 0.128666
v -0.204000 0.374000 0.125101
v -0.208202 0.386430 0.121537
v -0.219202 0.394113 0.119334
v -0.232798 0.394113 0.119334
v -0.243798 0.386430 0.121537
v -0.247090 0.374780 0.127820
v -0.243062 0.362864 0.131237
v -0.232517 0.355499 0.133349
v -0.219483 0.355499 0.133349
v -0.208938 0.362864 0.131237
v -0.204910 0.374780 0.127820
v -0.208938 0.386696 0.124403
v -0.219483 0.394060 0.122291
v -0.232517 0.394060 0.122291
v -0.243062 0.386696 0.124403
v -0.244892 0.375103 0.128946
v -0.241284 0.364428 0.132007
v -0.231838 0.357831 0.133899
v -0.220162 0.357831 0.133899
v -0.210716 0.364428 0.132007
v -0.207108 0.375103 0.128946
v -0.210716 0.385777 0.125885
v -0.220162 0.392374 0.123994
v -0.231838 0.392374 0.123994
v -0.241284 0.385777 0.125885
v -0.242695 0.374780 0.127820
v -0.239507 0.365347 0.130525
v -0.231159 0.359517 0.132197
v -0.220841 0.359517 0.132197
v -0.212493 0.365347 0.130525
v -0.209305 0.374780 0.127820
v -0.212493 0.384213 0.125115
v -0.220841 0.390043 0.123443
v -0.231159 0.390043 0.123443
v -0.239507 0.384213 0.125115
v -0.234328 0.401086 0.127101
v -0.234328 0.374914 0.127101
v -0.218904 0.401086 0.127101
v -0.218904 0.374914 0.127101
vn -0.000000 -0.000000 -1.000000
vn -0.000000 -0.000000 1.000000
vn -0.000000 -0.702894 -0.711294
vn -0.000000 -0.702894 0.711294
vn -1.000000 -0.000000 -0.000000
vn 1.000000 -0.000000 -0.000000
vn 0.711294 -0.702894 -0.000000
vn -0.711294 -0.702894 -0.000000
vn -0.989402 -0.145200 -0.000000
vn -0.000000 -0.145200 -0.989402
vn 0.989402 -0.145200 -0.000000
vn -0.000000 -0.145200 0.989402
vn -0.000000 -0.167204 -0.985922
vn 0.985922 -0.167204 -0.000000
vn -0.000000 -0.167204 0.985922
vn -0.985922 -0.167204 -0.000000
vn -0.000000 0.245499 -0.969397
vn 0.969397 0.245499 -0.000000
vn -0.000000 0.245499 0.969397
vn -0.969397 0.245499 -0.000000
vn -0.857493 0.514496 -0.000000
vn -0.000000 0.514496 -0.857493
vn 0.857493 0.514496 -0.000000
vn -0.000000 0.514496 0.857493
vn 0.986873 -0.161496 -0.000000
vn -0.000000 -0.161496 0.986873
vn -0.986873 -0.161496 -0.000000
vn -0.000000 -0.161496 -0.986873
vn -0.000000 -1.000000 -0.000000
vn 0.707107 -0.000000 0.707107
vn -0.000000 0.707107 0.707107
vn -0.707107 -0.000000 0.707107
vn -0.000000 -0.707107 0.707107
vn -0.000000 1.000000 -0.000000
vn 0.809020 0.565014 -0.162004
vn 0.617195 0.252798 -0.745093
vn 0.762887 -0.178197 -0.621489
vn 0.309001 0.914204 -0.262201
vn 0.235702 0.519204 -0.821506
vn -0.309001 0.914204 -0.262201
vn -0.235702 0.519204 -0.821506
vn -0.809020 0.565014 -0.162004
vn -0.617195 0.252798 -0.745093
vn -0.762887 -0.178197 -0.621489
vn -0.809007 -0.565005 0.162101
vn -0.617211 -0.609211 -0.497909
vn -0.309001 -0.914204 0.262201
vn -0.235713 -0.875647 -0.421523
vn 0.309001 -0.914204 0.262201
vn 0.235713 -0.875647 -0.421523
vn 0.809007 -0.565005 0.162101
vn 0.617173 -0.609274 -0.497878
vn -0.000000 -0.275593 -0.961275
vn -0.000000 -0.275685 -0.961248
vn -0.809020 -0.565014 0.162004
vn -0.309009 -0.914228 0.262108
vn 0.309009 -0.914228 0.262108
vn 0.809020 -0.565014 0.162004
vn 0.309009 0.914228 -0.262108
vn -0.309009 0.914228 -0.262108
vn -0.617195 -0.252798 0.745093
vn -0.762887 0.178197 0.621489
vn -0.235702 -0.519204 0.821506
vn 0.235702 -0.519204 0.821506
vn 0.617195 -0.252798 0.745093
vn 0.762887 0.178197 0.621489
vn 0.617173 0.609274 0.497878
vn 0.235787 0.875650 0.421476
vn -0.235692 0.875671 0.421486
vn -0.617173 0.609274 0.497878
vn -0.000000 0.275593 0.961275
vn -0.000000 0.275685 0.961248
vn 0.617211 0.609211 0.497909
vn 0.235713 0.875647 0.421523
vn -0.235713 0.875647 0.421523
vn -0.617211 0.609211 0.497909
vn -0.762845 0.178211 0.621537
vn 0.809007 0.565005 -0.162101
vn 0.308993 0.914180 -0.262294
vn -0.308993 0.914180 -0.262294
vn -0.809007 0.565005 -0.162101
vn -0.308989 -0.914268 0.261991
vn 0.308993 -0.914180 0.262294
vn 0.617211 -0.609211 -0.497909
vn -0.000000 -0.275712 -0.961240
vn -0.617173 -0.609274 -0.497878
vn 0.235692 0.875671 0.421486
vn -0.000000 0.275712 0.961240
vn 0.762845 0.178211 0.621537
vn -0.308993 -0.914180 0.262294
vn -0.278905 0.960319 -0.000000
vn -0.339679 -0.940541 -0.000000
vn -0.278905 -0.960319 -0.000000
vn -0.535587 0.844480 -0.000000
vn -0.535587 -0.844480 -0.000000
vn -0.339711 -0.940530 -0.000000
vn -0.688468 0.725267 -0.000000
vn -0.228393 -0.964470 0.132796
vn -0.339590 -0.940573 -0.000000
vn 0.340603 -0.940207 -0.000000
vn 0.229100 -0.964301 0.132800
vn -0.000000 0.981959 0.189092
vn 0.229100 0.964301 0.132800
vn 0.340603 0.940207 -0.000000
vn 0.340691 -0.940175 -0.000000
vn 0.340691 0.940175 -0.000000
vn 0.226101 -0.974104 -0.000000
vn 0.226101 0.974104 -0.000000
vn 0.440521 -0.897742 -0.000000
vn 0.440521 0.897742 -0.000000
vn -0.928477 -0.000000 0.371391
vn -0.000000 -0.981956 0.189111
vn -0.000000 -0.928477 0.371391
vn 0.928477 -0.000000 0.371391
vn -0.000000 0.981956 0.189111
vn -0.000000 0.928477 0.371391
vn 0.226196 -0.974082 -0.000000
vn 0.226196 0.974082 -0.000000
vn 0.440601 -0.897703 -0.000000
vn 0.440601 0.897703 -0.000000
vn -0.000000 -0.981959 0.189092
vn 0.340691 -0.940175 0.000100
s 1
usemtl wood
f 2//1 17//1 18//1 1//1
f 17//1 19//1 20//1 18//1
f 21//1 23//1 24//1 22//1
f 23//1 3//1 4//1 24//1
f 5//2 29//2 25//2 6//2
f 29//2 30//2 26//2 25//2
f 31//2 32//2 28//2 27//2
f 32//2 8//2 7//2 28//2
f 1//3 18//3 33//3 9//3
f 18//3 20//3 34//3 33//3
f 22//3 24//3 36//3 35//3
f 24//3 4//3 10//3 36//3
f 11//4 37//4 29//4 5//4
f 37//4 38//4 30//4 29//4
f 39//4 40//4 32//4 31//4
f 40//4 12//4 8//4 32//4
f 22//1 49//1 50//1 21//1
f 49//1 51//1 52//1 50//1
f 51//1 20//1 19//1 52//1
f 27//2 53//2 55//2 31//2
f 53//2 54//2 56//2 55//2
f 54//2 26//2 30//2 56//2
f 35//3 57//3 49//3 22//3
f 57//3 58//3 51//3 49//3
f 58//3 34//3 20//3 51//3
f 31//4 55//4 59//4 39//4
f 55//4 56//4 60//4 59//4
f 56//4 30//4 38//4 60//4
f 1//5 61//5 62//5 2//5
f 61//5 63//5 64//5 62//5
f 63//5 5//5 6//5 64//5
f 3//6 65//6 66//6 4//6
f 65//6 67//6 68//6 66//6
f 67//6 7//6 8//6 68//6
f 4//7 66//7 69//7 10//7
f 66//7 68//7 70//7 69//7
f 68//7 8//7 12//7 70//7
f 9//8 71//8 61//8 1//8
f 71//8 72//8 63//8 61//8
f 72//8 11//8 5//8 63//8
f 44//5 80//5 96//9 86//9
f 80//1 76//1 92//10 96//10
f 76//6 16//6 84//11 92//11
f 13//1 45//1 87//10 81//10
f 45//6 77//6 93//11 87//11
f 77//2 73//2 89//12 93//12
f 73//5 13//5 81//9 89//9
f 74//1 78//1 94//10 90//10
f 78//6 41//6 85//11 94//11
f 41//2 15//2 83//12 85//12
f 15//5 74//5 90//9 83//9
f 48//1 14//1 82//10 88//10
f 14//6 75//6 91//11 82//11
f 75//2 79//2 95//12 91//12
f 79//5 48//5 88//9 95//9
f 90//10 94//10 110//13 106//13
f 94//11 85//11 101//14 110//14
f 85//12 83//12 99//15 101//15
f 83//9 90//9 106//16 99//16
f 95//9 88//9 104//16 111//16
f 88//10 82//10 98//13 104//13
f 82//11 91//11 107//14 98//14
f 91//12 95//12 111//15 107//15
f 86//9 96//9 112//16 102//16
f 96//10 92//10 108//13 112//13
f 92//11 84//11 100//14 108//14
f 84//12 86//12 102//15 100//15
f 93//12 89//12 105//15 109//15
f 89//9 81//9 97//16 105//16
f 81//10 87//10 103//13 97//13
f 87//11 93//11 109//14 103//14
f 112//13 108//13 124//17 128//17
f 108//14 100//14 116//18 124//18
f 100//15 102//15 118//19 116//19
f 102//16 112//16 128//20 118//20
f 103//14 109//14 125//18 119//18
f 109//15 105//15 121//19 125//19
f 105//16 97//16 113//20 121//20
f 97//13 103//13 119//17 113//17
f 111//16 104//16 120//20 127//20
f 104//13 98//13 114//17 120//17
f 98//14 107//14 123//18 114//18
f 107//15 111//15 127//19 123//19
f 99//16 106//16 122//20 115//20
f 106//13 110//13 126//17 122//17
f 110//14 101//14 117//18 126//18
f 101//15 99//15 115//19 117//19
f 118//20 128//20 144//21 134//21
f 128//17 124//17 140//22 144//22
f 124//18 116//18 132//23 140//23
f 116//19 118//19 134//24 132//24
f 125//19 121//19 137//24 141//24
f 121//20 113//20 129//21 137//21
f 113//17 119//17 135//22 129//22
f 119//18 125//18 141//23 135//23
f 127//20 120//20 136//21 143//21
f 120//17 114//17 130//22 136//22
f 114//18 123//18 139//23 130//23
f 123//19 127//19 143//24 139//24
f 122//17 126//17 142//22 138//22
f 126//18 117//18 133//23 142//23
f 117//19 115//19 131//24 133//24
f 115//20 122//20 138//21 131//21
f 140//25 132//25 148//25 156//25
f 132//26 134//26 150//26 148//26
f 134//27 144//27 160//27 150//27
f 144//28 140//28 156//28 160//28
f 142//25 133//25 149//25 158//25
f 133//26 131//26 147//26 149//26
f 131//27 138//27 154//27 147//27
f 138//28 142//28 158//28 154//28
f 135//25 141//25 157//25 151//25
f 141//26 137//26 153//26 157//26
f 137//27 129//27 145//27 153//27
f 129//28 135//28 151//28 145//28
f 143//27 136//27 152//27 159//27
f 136//28 130//28 146//28 152//28
f 130//25 139//25 155//25 146//25
f 139//26 143//26 159//26 155//26
f 151//29 157//29 153//29 145//29
f 158//29 149//29 147//29 154//29
f 146//29 155//29 159//29 152//29
f 156//29 148//29 150//29 160//29
f 179//30 178//30 203//30 204//30
f 178//31 185//31 209//31 203//31
f 185//32 186//32 210//32 209//32
f 186//33 179//33 204//33 210//33
f 184//33 177//33 202//33 208//33
f 177//30 176//30 201//30 202//30
f 176//31 183//31 207//31 201//31
f 183//32 184//32 208//32 207//32
f 182//33 175//33 200//33 206//33
f 175//30 173//30 199//30 200//30
f 173//31 181//31 205//31 199//31
f 181//32 182//32 206//32 205//32
f 188//30 187//30 211//30 212//30
f 187//31 167//31 193//31 211//31
f 167//32 168//32 194//32 193//32
f 168//33 188//33 212//33 194//33
f 190//30 189//30 213//30 214//30
f 189//31 169//31 195//31 213//31
f 169//32 170//32 196//32 195//32
f 170//33 190//33 214//33 196//33
f 192//30 191//30 215//30 216//30
f 191//31 171//31 197//31 215//31
f 171//32 172//32 198//32 197//32
f 172//33 192//33 216//33 198//33
f 205//2 206//2 200//2 199//2
f 207//2 208//2 202//2 201//2
f 209//2 210//2 204//2 203//2
f 193//2 194//2 212//2 211//2
f 195//2 196//2 214//2 213//2
f 197//2 198//2 216//2 215//2
f 2//34 62//34 64//34 6//34 25//34 26//34 54//34 53//34 27//34 28//34 7//34 67//34 65//34 3//34 23//34 21//34 50//34 52//34 19//34 17//34
f 162//2 168//2 167//2
f 164//2 170//2 169//2
f 166//2 172//2 171//2
f 173//2 175//2 174//2
f 16//6 76//6 75//6 14//6 10//6 69//6 70//6 12//6 180//6
f 13//5 73//5 74//5 15//5 165//5 163//5 161//5 11//5 72//5 71//5 9//5
f 43//29 42//29 78//29 74//29 73//29 77//29 46//29 47//29 79//29 75//29 76//29 80//29
f 46//29 77//29 45//29
f 42//29 41//29 78//29
f 48//29 79//29 47//29
f 80//29 44//29 43//29
f 14//1 48//1 47//1 46//1 45//1 13//1 9//1 33//1 34//1 58//1 57//1 35//1 36//1 10//1
f 11//2 161//2 162//2 167//2 187//2 188//2 168//2 189//2 190//2 170//2 164//2 163//2 165//2 166//2 171//2 191//2 192//2 42//2 186//2 185//2 184//2 183//2 182//2 181//2 173//2 174//2 180//2 12//2 40//2 39//2 59//2 60//2 38//2 37//2
f 169//2 189//2 168//2 162//2 161//2 163//2 164//2
f 42//2 192//2 172//2 166//2 165//2 15//2 41//2
f 186//2 42//2 43//2 44//2 86//12 84//12 16//2 180//2 174//2 175//2 182//2 183//2 176//2 177//2 184//2 185//2 178//2 179//2
usemtl metal
f 249//6 250//35 260//36 259//37
f 250//35 251//38 261//39 260//36
f 251//38 252//40 262//41 261//39
f 252//40 253//42 263//43 262//41
f 253//42 254//5 264//44 263//43
f 254//5 255//45 265//46 264//44
f 255//45 256//47 266//48 265//46
f 256//47 257//49 267//50 266//48
f 257//49 258//51 268//52 267//50
f 258//51 249//6 259//37 268//52
f 259//37 260//36 270//53 269//53
f 260//36 261//39 271//54 270//53
f 261//39 262//41 272//54 271//54
f 262//41 263//43 273//54 272//54
f 263//43 264//44 274//53 273//54
f 264//44 265//46 275//53 274//53
f 265//46 266//48 276//53 275//53
f 266//48 267//50 277//53 276//53
f 267//50 268//52 278//53 277//53
f 268//52 259//37 269//53 278//53
f 269//53 270//53 280//46 279//44
f 270//53 271//54 281//48 280//46
f 271//54 272//54 282//50 281//48
f 272//54 273//54 283//52 282//50
f 273//54 274//53 284//37 283//52
f 274//53 275//53 285//36 284//37
f 275//53 276//53 286//39 285//36
f 276//53 277//53 287//41 286//39
f 277//53 278//53 288//43 287//41
f 278//53 269//53 279//44 288//43
f 279//44 280//46 290//55 289//5
f 280//46 281//48 291//56 290//55
f 281//48 282//50 292//57 291//56
f 282//50 283//52 293//58 292//57
f 283//52 284//37 294//6 293//58
f 284//37 285//36 295//35 294//6
f 285//36 286//39 296//59 295//35
f 286//39 287//41 297//60 296//59
f 287//41 288//43 298//42 297//60
f 288//43 279//44 289//5 298//42
f 289//5 290//55 300//61 299//62
f 290//55 291//56 301//63 300//61
f 291//56 292//57 302//64 301//63
f 292//57 293//58 303//65 302//64
f 293//58 294//6 304//66 303//65
f 294//6 295//35 305//67 304//66
f 295//35 296//59 306//68 305//67
f 296//59 297//60 307//69 306//68
f 297//60 298//42 308//70 307//69
f 298//42 289//5 299//62 308//70
f 299//62 300//61 310//71 309//72
f 300//61 301//63 311//71 310//71
f 301//63 302//64 312//71 311//71
f 302//64 303//65 313//71 312//71
f 303//65 304//66 314//71 313//71
f 304//66 305//67 315//72 314//71
f 305//67 306//68 316//72 315//72
f 306//68 307//69 317//72 316//72
f 307//69 308//70 318//72 317//72
f 308//70 299//62 309//72 318//72
f 309//72 310//71 320//73 319//66
f 310//71 311//71 321//74 320//73
f 311//71 312//71 322//75 321//74
f 312//71 313//71 323//76 322//75
f 313//71 314//71 324//77 323//76
f 314//71 315//72 325//61 324//77
f 315//72 316//72 326//63 325//61
f 316//72 317//72 327//64 326//63
f 317//72 318//72 328//65 327//64
f 318//72 309//72 319//66 328//65
f 319//66 320//73 250//35 249//6
f 320//73 321//74 251//38 250//35
f 321//74 322//75 252//40 251//38
f 322//75 323//76 253//42 252//40
f 323//76 324//77 254//5 253//42
f 324//77 325//61 255//45 254//5
f 325//61 326//63 256//47 255//45
f 326//63 327//64 257//49 256//47
f 327//64 328//65 258//51 257//49
f 328//65 319//66 249//6 258//51
f 365//6 366//78 376//36 375//37
f 366//78 367//79 377//39 376//36
f 367//79 368//80 378//41 377//39
f 368//80 369//81 379//43 378//41
f 369//81 370//5 380//44 379//43
f 370//5 371//45 381//46 380//44
f 371//45 372//82 382//48 381//46
f 372//82 373//83 383//50 382//48
f 373//83 374//51 384//84 383//50
f 374//51 365//6 375//37 384//84
f 375//37 376//36 386//54 385//53
f 376//36 377//39 387//54 386//54
f 377//39 378//41 388//54 387//54
f 378//41 379//43 389//85 388//54
f 379//43 380//44 390//54 389//85
f 380//44 381//46 391//53 390//54
f 381//46 382//48 392//53 391//53
f 382//48 383//50 393//53 392//53
f 383//50 384//84 394//53 393//53
f 384//84 375//37 385//53 394//53
f 385//53 386//54 396//86 395//44
f 386//54 387//54 397//48 396//86
f 387//54 388//54 398//50 397//48
f 388//54 389//85 399//84 398//50
f 389//85 390//54 400//37 399//84
f 390//54 391//53 401//36 400//37
f 391//53 392//53 402//39 401//36
f 392//53 393//53 403//41 402//39
f 393//53 394//53 404//43 403//41
f 394//53 385//53 395//44 404//43
f 395//44 396//86 406//45 405//5
f 396//86 397//48 407//56 406//45
f 397//48 398//50 408//57 407//56
f 398//50 399//84 409//51 408//57
f 399//84 400//37 410//6 409//51
f 400//37 401//36 411//35 410//6
f 401//36 402//39 412//59 411//35
f 402//39 403//41 413//60 412//59
f 403//41 404//43 414//42 413//60
f 404//43 395//44 405//5 414//42
f 405//5 406//45 416//61 415//62
f 406//45 407//56 417//63 416//61
f 407//56 408//57 418//64 417//63
f 408//57 409//51 419//65 418//64
f 409//51 410//6 420//66 419//65
f 410//6 411//35 421//67 420//66
f 411//35 412//59 422//87 421//67
f 412//59 413//60 423//69 422//87
f 413//60 414//42 424//70 423//69
f 414//42 405//5 415//62 424//70
f 415//62 416//61 426//71 425//72
f 416//61 417//63 427//71 426//71
f 417//63 418//64 428//71 427//71
f 418//64 419//65 429//71 428//71
f 419//65 420//66 430//71 429//71
f 420//66 421//67 431//71 430//71
f 421//67 422//87 432//72 431//71
f 422//87 423//69 433//72 432//72
f 423//69 424//70 434//72 433//72
f 424//70 415//62 425//72 434//72
f 425//72 426//71 436//73 435//66
f 426//71 427//71 437//74 436//73
f 427//71 428//71 438//75 437//74
f 428//71 429//71 439//76 438//75
f 429//71 430//71 440//62 439//76
f 430//71 431//71 441//61 440//62
f 431//71 432//72 442//63 441//61
f 432//72 433//72 443//64 442//63
f 433//72 434//72 444//65 443//64
f 434//72 425//72 435//66 444//65
f 435//66 436//73 366//78 365//6
f 436//73 437//74 367//79 366//78
f 437//74 438//75 368//80 367//79
f 438//75 439//76 369//81 368//80
f 439//76 440//62 370//5 369//81
f 440//62 441//61 371//45 370//5
f 441//61 442//63 372//82 371//45
f 442//63 443//64 373//83 372//82
f 443//64 444//65 374//51 373//83
f 444//65 435//66 365//6 374//51
f 481//6 482//35 492//36 491//37
f 482//35 483//38 493//39 492//36
f 483//38 484//40 494//41 493//39
f 484//40 485//42 495//43 494//41
f 485//42 486//5 496//44 495//43
f 486//5 487//45 497//46 496//44
f 487//45 488//47 498//48 497//46
f 488//47 489//49 499//50 498//48
f 489//49 490//51 500//84 499//50
f 490//51 481//6 491//37 500//84
f 491//37 492//36 502//53 501//53
f 492//36 493//39 503//54 502//53
f 493//39 494//41 504//54 503//54
f 494//41 495//43 505//54 504//54
f 495//43 496//44 506//53 505//54
f 496//44 497//46 507//53 506//53
f 497//46 498//48 508//53 507//53
f 498//48 499//50 509//53 508//53
f 499//50 500//84 510//53 509//53
f 500//84 491//37 501//53 510//53
f 501//53 502//53 512//46 511//44
f 502//53 503//54 513//48 512//46
f 503//54 504//54 514//50 513//48
f 504//54 505//54 515//52 514//50
f 505//54 506//53 516//37 515//52
f 506//53 507//53 517//36 516//37
f 507//53 508//53 518//39 517//36
f 508//53 509//53 519//41 518//39
f 509//53 510//53 520//43 519//41
f 510//53 501//53 511//44 520//43
f 511//44 512//46 522//55 521//5
f 512//46 513//48 523//56 522//55
f 513//48 514//50 524//57 523//56
f 514//50 515//52 525//58 524//57
f 515//52 516//37 526//6 525//58
f 516//37 517//36 527//35 526//6
f 517//36 518//39 528//38 527//35
f 518//39 519//41 529//40 528//38
f 519//41 520//43 530//42 529//40
f 520//43 511//44 521//5 530//42
f 521//5 522//55 532//61 531//62
f 522//55 523//56 533//63 532//61
f 523//56 524//57 534//64 533//63
f 524//57 525//58 535//65 534//64
f 525//58 526//6 536//66 535//65
f 526//6 527//35 537//67 536//66
f 527//35 528//38 538//87 537//67
f 528//38 529//40 539//69 538//87
f 529//40 530//42 540//70 539//69
f 530//42 521//5 531//62 540//70
f 531//62 532//61 542//71 541//72
f 532//61 533//63 543//71 542//71
f 533//63 534//64 544//71 543//71
f 534//64 535//65 545//71 544//71
f 535//65 536//66 546//71 545//71
f 536//66 537//67 547//72 546//71
f 537//67 538//87 548//88 547//72
f 538//87 539//69 549//88 548//88
f 539//69 540//70 550//72 549//88
f 540//70 531//62 541//72 550//72
f 541//72 542//71 552//73 551//89
f 542//71 543//71 553//74 552//73
f 543//71 544//71 554//75 553//74
f 544//71 545//71 555//76 554//75
f 545//71 546//71 556//77 555//76
f 546//71 547//72 557//61 556//77
f 547//72 548//88 558//63 557//61
f 548//88 549//88 559//64 558//63
f 549//88 550//72 560//65 559//64
f 550//72 541//72 551//89 560//65
f 551//89 552//73 482//35 481//6
f 552//73 553//74 483//38 482//35
f 553//74 554//75 484//40 483//38
f 554//75 555//76 485//42 484//40
f 555//76 556//77 486//5 485//42
f 556//77 557//61 487//45 486//5
f 557//61 558//63 488//47 487//45
f 558//63 559//64 489//49 488//47
f 559//64 560//65 490//51 489//49
f 560//65 551//89 481//6 490//51
f 597//6 598//35 608//36 607//37
f 598//35 599//38 609//39 608//36
f 599//38 600//40 610//41 609//39
f 600//40 601//42 611//43 610//41
f 601//42 602//5 612//44 611//43
f 602//5 603//45 613//86 612//44
f 603//45 604//47 614//48 613//86
f 604//47 605//49 615//50 614//48
f 605//49 606//51 616//52 615//50
f 606//51 597//6 607//37 616//52
f 607//37 608//36 618//54 617//53
f 608//36 609//39 619//54 618//54
f 609//39 610//41 620//54 619//54
f 610//41 611//43 621//54 620//54
f 611//43 612//44 622//53 621//54
f 612//44 613//86 623//53 622//53
f 613//86 614//48 624//53 623//53
f 614//48 615//50 625//53 624//53
f 615//50 616//52 626//53 625//53
f 616//52 607//37 617//53 626//53
f 617//53 618//54 628//46 627//44
f 618//54 619//54 629//48 628//46
f 619//54 620//54 630//50 629//48
f 620//54 621//54 631//52 630//50
f 621//54 622//53 632//37 631//52
f 622//53 623//53 633//36 632//37
f 623//53 624//53 634//39 633//36
f 624//53 625//53 635//41 634//39
f 625//53 626//53 636//43 635//41
f 626//53 617//53 627//44 636//43
f 627//44 628//46 638//55 637//5
f 628//46 629//48 639//56 638//55
f 629//48 630//50 640//57 639//56
f 630//50 631//52 641//58 640//57
f 631//52 632//37 642//6 641//58
f 632//37 633//36 643//35 642//6
f 633//36 634//39 644//59 643//35
f 634//39 635//41 645//60 644//59
f 635//41 636//43 646//42 645//60
f 636//43 627//44 637//5 646//42
f 637//5 638//55 648//61 647//62
f 638//55 639//56 649//63 648//61
f 639//56 640//57 650//64 649//63
f 640//57 641//58 651//65 650//64
f 641//58 642//6 652//66 651//65
f 642//6 643//35 653//67 652//66
f 643//35 644//59 654//68 653//67
f 644//59 645//60 655//69 654//68
f 645//60 646//42 656//70 655//69
f 646//42 637//5 647//62 656//70
f 647//62 648//61 658//71 657//71
f 648//61 649//63 659//71 658//71
f 649//63 650//64 660//71 659//71
f 650//64 651//65 661//71 660//71
f 651//65 652//66 662//71 661//71
f 652//66 653//67 663//72 662//71
f 653//67 654//68 664//72 663//72
f 654//68 655//69 665//72 664//72
f 655//69 656//70 666//72 665//72
f 656//70 647//62 657//71 666//72
f 657//71 658//71 668//73 667//89
f 658//71 659//71 669//74 668//73
f 659//71 660//71 670//75 669//74
f 660//71 661//71 671//76 670//75
f 661//71 662//71 672//77 671//76
f 662//71 663//72 673//61 672//77
f 663//72 664//72 674//63 673//61
f 664//72 665//72 675//64 674//63
f 665//72 666//72 676//65 675//64
f 666//72 657//71 667//89 676//65
f 667//89 668//73 598//35 597//6
f 668//73 669//74 599//38 598//35
f 669//74 670//75 600//40 599//38
f 670//75 671//76 601//42 600//40
f 671//76 672//77 602//5 601//42
f 672//77 673//61 603//45 602//5
f 673//61 674//63 604//47 603//45
f 674//63 675//64 605//49 604//47
f 675//64 676//65 606//51 605//49
f 676//65 667//89 597//6 606//51
f 713//6 714//78 724//36 723//37
f 714//78 715//79 725//39 724//36
f 715//79 716//80 726//41 725//39
f 716//80 717//81 727//43 726//41
f 717//81 718//5 728//44 727//43
f 718//5 719//45 729//46 728//44
f 719//45 720//90 730//48 729//46
f 720//90 721//83 731//50 730//48
f 721//83 722//51 732//84 731//50
f 722//51 713//6 723//37 732//84
f 723//37 724//36 734//54 733//53
f 724//36 725//39 735//54 734//54
f 725//39 726//41 736//54 735//54
f 726//41 727//43 737//54 736//54
f 727//43 728//44 738//53 737//54
f 728//44 729//46 739//53 738//53
f 729//46 730//48 740//53 739//53
f 730//48 731//50 741//53 740//53
f 731//50 732//84 742//53 741//53
f 732//84 723//37 733//53 742//53
f 733//53 734//54 744//86 743//44
f 734//54 735//54 745//48 744//86
f 735//54 736//54 746//50 745//48
f 736//54 737//54 747//84 746//50
f 737//54 738//53 748//37 747//84
f 738//53 739//53 749//36 748//37
f 739//53 740//53 750//39 749//36
f 740//53 741//53 751//41 750//39
f 741//53 742//53 752//43 751//41
f 742//53 733//53 743//44 752//43
f 743//44 744//86 754//45 753//5
f 744//86 745//48 755//56 754//45
f 745//48 746//50 756//57 755//56
f 746//50 747//84 757//51 756//57
f 747//84 748//37 758//6 757//51
f 748//37 749//36 759//35 758//6
f 749//36 750//39 760//59 759//35
f 750//39 751//41 761//60 760//59
f 751//41 752//43 762//42 761//60
f 752//43 743//44 753//5 762//42
f 753//5 754//45 764//61 763//62
f 754//45 755//56 765//63 764//61
f 755//56 756//57 766//64 765//63
f 756//57 757//51 767//65 766//64
f 757//51 758//6 768//66 767//65
f 758//6 759//35 769//67 768//66
f 759//35 760//59 770//87 769//67
f 760//59 761//60 771//69 770//87
f 761//60 762//42 772//70 771//69
f 762//42 753//5 763//62 772//70
f 763//62 764//61 774//71 773//72
f 764//61 765//63 775//71 774//71
f 765//63 766//64 776//71 775//71
f 766//64 767//65 777//71 776//71
f 767//65 768//66 778//71 777//71
f 768//66 769//67 779//71 778//71
f 769//67 770//87 780//72 779//71
f 770//87 771//69 781//72 780//72
f 771//69 772//70 782//72 781//72
f 772//70 763//62 773//72 782//72
f 773//72 774//71 784//73 783//66
f 774//71 775//71 785//74 784//73
f 775//71 776//71 786//75 785//74
f 776//71 777//71 787//76 786//75
f 777//71 778//71 788//62 787//76
f 778//71 779//71 789//61 788//62
f 779//71 780//72 790//63 789//61
f 780//72 781//72 791//64 790//63
f 781//72 782//72 792//65 791//64
f 782//72 773//72 783//66 792//65
f 783//66 784//73 714//78 713//6
f 784//73 785//74 715//79 714//78
f 785//74 786//75 716//80 715//79
f 786//75 787//76 717//81 716//80
f 787//76 788//62 718//5 717//81
f 788//62 789//61 719//45 718//5
f 789//61 790//63 720//90 719//45
f 790//63 791//64 721//83 720//90
f 791//64 792//65 722//51 721//83
f 792//65 783//66 713//6 722//51
f 829//6 830//35 840//36 839//37
f 830//35 831//38 841//39 840//36
f 831//38 832//40 842//41 841//39
f 832//40 833//42 843//43 842//41
f 833//42 834//5 844//44 843//43
f 834//5 835//45 845//46 844//44
f 835//45 836//47 846//48 845//46
f 836//47 837//49 847//50 846//48
f 837//49 838//51 848//84 847//50
f 838//51 829//6 839//37 848//84
f 839//37 840//36 850//54 849//53
f 840//36 841//39 851//54 850//54
f 841//39 842//41 852//54 851//54
f 842//41 843//43 853//54 852//54
f 843//43 844//44 854//53 853//54
f 844//44 845//46 855//53 854//53
f 845//46 846//48 856//53 855//53
f 846//48 847//50 857//53 856//53
f 847//50 848//84 858//53 857//53
f 848//84 839//37 849//53 858//53
f 849//53 850//54 860//46 859//44
f 850//54 851//54 861//48 860//46
f 851//54 852//54 862//50 861//48
f 852//54 853//54 863//52 862//50
f 853//54 854//53 864//37 863//52
f 854//53 855//53 865//36 864//37
f 855//53 856//53 866//39 865//36
f 856//53 857//53 867//41 866//39
f 857//53 858//53 868//43 867//41
f 858//53 849//53 859//44 868//43
f 859//44 860//46 870//55 869//5
f 860//46 861//48 871//56 870//55
f 861//48 862//50 872//57 871//56
f 862//50 863//52 873//58 872//57
f 863//52 864//37 874//6 873//58
f 864//37 865//36 875//35 874//6
f 865//36 866//39 876//38 875//35
f 866//39 867//41 877//40 876//38
f 867//41 868//43 878//42 877//40
f 868//43 859//44 869//5 878//42
f 869//5 870//55 880//61 879//62
f 870//55 871//56 881//63 880//61
f 871//56 872//57 882//64 881//63
f 872//57 873//58 883//65 882//64
f 873//58 874//6 884//66 883//65
f 874//6 875//35 885//67 884//66
f 875//35 876//38 886//87 885//67
f 876//38 877//40 887//69 886//87
f 877//40 878//42 888//70 887//69
f 878//42 869//5 879//62 888//70
f 879//62 880//61 890//71 889//72
f 880//61 881//63 891//71 890//71
f 881//63 882//64 892//71 891//71
f 882//64 883//65 893//71 892//71
f 883//65 884//66 894//71 893//71
f 884//66 885//67 895//72 894//71
f 885//67 886//87 896//88 895//72
f 886//87 887//69 897//88 896//88
f 887//69 888//70 898//72 897//88
f 888//70 879//62 889//72 898//72
f 889//72 890//71 900//73 899//89
f 890//71 891//71 901//74 900//73
f 891//71 892//71 902//75 901//74
f 892//71 893//71 903//76 902//75
f 893//71 894//71 904//77 903//76
f 894//71 895//72 905//61 904//77
f 895//72 896//88 906//63 905//61
f 896//88 897//88 907//64 906//63
f 897//88 898//72 908//65 907//64
f 898//72 889//72 899//89 908//65
f 899//89 900//73 830//35 829//6
f 900//73 901//74 831//38 830//35
f 901//74 902//75 832//40 831//38
f 902//75 903//76 833//42 832//40
f 903//76 904//77 834//5 833//42
f 904//77 905//61 835//45 834//5
f 905//61 906//63 836//47 835//45
f 906//63 907//64 837//49 836//47
f 907//64 908//65 838//51 837//49
f 908//65 899//89 829//6 838//51
usemtl wood
f 909//2 910//2 912//2 911//2
f 217//1 218//1 219//1 220//1
f 222//91 223//34 219//34 218//91
f 224//92 221//93 217//93 220//92
f 221//2 224//2 223//2 222//2
f 221//2 222//2 228//2 227//2
f 222//91 218//91 226//94 228//94
f 218//1 217//1 225//1 226//1
f 217//93 221//93 227//95 225//95
f 227//5 228//5 226//5 225//5
f 223//2 224//2 232//2 231//2
f 224//92 220//92 230//96 232//96
f 220//1 219//1 229//1 230//1
f 219//97 223//97 231//97 229//97
f 232//98 230//99 234//100 236//101
f 230//1 229//1 233//1 234//1
f 229//34 231//102 235//103 233//104
f 235//2 236//2 240//2 239//2
f 236//105 234//105 238//105 240//105
f 234//1 233//1 237//1 238//1
f 233//106 235//106 239//106 237//106
f 239//2 240//2 244//2 243//2
f 240//105 238//105 242//107 244//107
f 238//1 237//1 241//1 242//1
f 237//106 239//106 243//108 241//108
f 243//2 244//2 248//2 247//2
f 244//107 242//107 246//109 248//109
f 242//1 241//1 245//1 246//1
f 241//108 243//108 247//110 245//110
f 247//6 248//6 246//6 245//6
f 231//111 232//111 330//111 329//111
f 232//112 236//112 332//113 330//113
f 236//114 235//114 331//114 332//114
f 235//115 231//115 329//116 331//116
f 329//2 330//2 332//2 331//2
f 333//1 334//1 335//1 336//1
f 338//91 339//34 335//34 334//91
f 340//99 337//93 333//93 336//99
f 337//2 340//2 339//2 338//2
f 337//2 338//2 344//2 343//2
f 338//91 334//91 342//94 344//94
f 334//1 333//1 341//1 342//1
f 333//93 337//93 343//95 341//95
f 343//5 344//5 342//5 341//5
f 339//2 340//2 348//2 347//2
f 340//99 336//99 346//96 348//96
f 336//1 335//1 345//1 346//1
f 335//97 339//97 347//97 345//97
f 348//98 346//99 350//100 352//101
f 346//1 345//1 349//1 350//1
f 345//34 347//102 351//103 349//104
f 351//2 352//2 356//2 355//2
f 352//105 350//105 354//105 356//105
f 350//1 349//1 353//1 354//1
f 349//106 351//106 355//106 353//106
f 355//2 356//2 360//2 359//2
f 356//105 354//105 358//117 360//117
f 354//1 353//1 357//1 358//1
f 353//106 355//106 359//118 357//118
f 359//2 360//2 364//2 363//2
f 360//117 358//117 362//119 364//119
f 358//1 357//1 361//1 362//1
f 357//118 359//118 363//120 361//120
f 363//6 364//6 362//6 361//6
f 347//111 348//111 446//111 445//111
f 348//121 352//121 448//113 446//113
f 352//114 351//114 447//114 448//114
f 351//115 347//115 445//116 447//116
f 445//2 446//2 448//2 447//2
f 449//1 450//1 451//1 452//1
f 454//91 455//34 451//34 450//91
f 456//92 453//93 449//93 452//92
f 453//2 456//2 455//2 454//2
f 453//2 454//2 460//2 459//2
f 454//91 450//91 458//94 460//94
f 450//1 449//1 457//1 458//1
f 449//93 453//93 459//95 457//95
f 459//5 460//5 458//5 457//5
f 455//2 456//2 464//2 463//2
f 456//92 452//92 462//96 464//96
f 452//1 451//1 461//1 462//1
f 451//97 455//97 463//97 461//97
f 464//98 462//99 466//100 468//101
f 462//1 461//1 465//1 466//1
f 461//34 463//102 467//103 465//104
f 467//2 468//2 472//2 471//2
f 468//105 466//122 470//105 472//105
f 466//1 465//1 469//1 470//1
f 465//106 467//106 471//106 469//106
f 471//2 472//2 476//2 475//2
f 472//105 470//105 474//107 476//107
f 470//1 469//1 473//1 474//1
f 469//106 471//106 475//108 473//108
f 475//2 476//2 480//2 479//2
f 476//107 474//107 478//109 480//109
f 474//1 473//1 477//1 478//1
f 473//108 475//108 479//110 477//110
f 479//6 480//6 478//6 477//6
f 463//111 464//111 562//111 561//111
f 464//121 468//121 564//113 562//113
f 468//114 467//114 563//114 564//114
f 467//115 463//115 561//116 563//116
f 561//2 562//2 564//2 563//2
f 565//1 566//1 567//1 568//1
f 570//91 571//34 567//34 566//91
f 572//92 569//93 565//93 568//92
f 569//2 572//2 571//2 570//2
f 569//2 570//2 576//2 575//2
f 570//91 566//91 574//94 576//94
f 566//1 565//1 573//1 574//1
f 565//93 569//93 575//95 573//95
f 575//5 576//5 574//5 573//5
f 571//2 572//2 580//2 579//2
f 572//92 568//92 578//96 580//96
f 568//1 567//1 577//1 578//1
f 567//97 571//97 579//97 577//97
f 580//98 578//99 582//100 584//101
f 578//1 577//1 581//1 582//1
f 577//34 579//102 583//103 581//104
f 583//2 584//2 588//2 587//2
f 584//105 582//105 586//105 588//105
f 582//1 581//1 585//1 586//1
f 581//106 583//106 587//106 585//106
f 587//2 588//2 592//2 591//2
f 588//105 586//105 590//107 592//107
f 586//1 585//1 589//1 590//1
f 585//106 587//106 591//108 589//108
f 591//2 592//2 596//2 595//2
f 592//107 590//107 594//109 596//109
f 590//1 589//1 593//1 594//1
f 589//108 591//108 595//110 593//110
f 595//6 596//6 594//6 593//6
f 579//111 580//111 678//111 677//111
f 580//112 584//112 680//113 678//113
f 584//114 583//114 679//114 680//114
f 583//115 579//115 677//116 679//116
f 677//2 678//2 680//2 679//2
f 681//1 682//1 683//1 684//1
f 686//91 687//34 683//34 682//91
f 688//99 685//93 681//93 684//99
f 685//2 688//2 687//2 686//2
f 685//2 686//2 692//2 691//2
f 686//91 682//91 690//94 692//94
f 682//1 681//1 689//1 690//1
f 681//93 685//93 691//95 689//95
f 691//5 692//5 690//5 689//5
f 687//2 688//2 696//2 695//2
f 688//99 684//99 694//96 696//96
f 684//1 683//1 693//1 694//1
f 683//97 687//97 695//97 693//97
f 696//98 694//99 698//100 700//101
f 694//1 693//1 697//1 698//1
f 693//34 695//102 699//103 697//104
f 699//2 700//2 704//2 703//2
f 700//105 698//105 702//105 704//105
f 698//1 697//1 701//1 702//1
f 697//106 699//106 703//106 701//106
f 703//2 704//2 708//2 707//2
f 704//105 702//105 706//117 708//117
f 702//1 701//1 705//1 706//1
f 701//106 703//106 707//118 705//118
f 707//2 708//2 712//2 711//2
f 708//117 706//117 710//119 712//119
f 706//1 705//1 709//1 710//1
f 705//118 707//118 711//120 709//120
f 711//6 712//6 710//6 709//6
f 695//111 696//111 794//111 793//111
f 696//121 700//121 796//113 794//113
f 700//114 699//114 795//114 796//114
f 699//115 695//115 793//116 795//116
f 793//2 794//2 796//2 795//2
f 797//1 798//1 799//1 800//1
f 802//91 803//34 799//34 798//91
f 804//92 801//93 797//93 800//92
f 801//2 804//2 803//2 802//2
f 801//2 802//2 808//2 807//2
f 802//91 798//91 806//94 808//94
f 798//1 797//1 805//1 806//1
f 797//93 801//93 807//95 805//95
f 807//5 808//5 806//5 805//5
f 803//2 804//2 812//2 811//2
f 804//92 800//92 810//96 812//96
f 800//1 799//1 809//1 810//1
f 799//97 803//97 811//97 809//97
f 812//98 810//99 814//100 816//101
f 810//1 809//1 813//1 814//1
f 809//34 811//102 815//103 813//104
f 815//2 816//2 820//2 819//2
f 816//105 814//122 818//105 820//105
f 814//1 813//1 817//1 818//1
f 813//106 815//106 819//106 817//106
f 819//2 820//2 824//2 823//2
f 820//105 818//105 822//107 824//107
f 818//1 817//1 821//1 822//1
f 817//106 819//106 823//108 821//108
f 823//2 824//2 828//2 827//2
f 824//107 822//107 826//109 828//109
f 822//1 821//1 825//1 826//1
f 821//108 823//108 827//110 825//110
f 827//6 828//6 826//6 825//6
f 811//111 812//111 910//111 909//111
f 812//121 816//121 912//113 910//113
f 816//114 815//114 911//114 912//114
f 815//115 811//115 909//116 911//116
